<svg xmlns="http://www.w3.org/2000/svg" width="794" height="290" viewBox="0 0 794 290" font-family="system-ui,sans-serif"><rect width="794" height="290" fill="#0f1115"/><text x="38" y="10" fill="#8b93a1" font-size="10" text-anchor="end">°C</text><line x1="42" y1="234.0" x2="784" y2="234.0" stroke="#1c222c"/><text x="38" y="238.0" fill="#6b7280" font-size="11" text-anchor="end">12°</text><line x1="42" y1="197.3" x2="784" y2="197.3" stroke="#1c222c"/><text x="38" y="201.3" fill="#6b7280" font-size="11" text-anchor="end">15°</text><line x1="42" y1="160.7" x2="784" y2="160.7" stroke="#1c222c"/><text x="38" y="164.7" fill="#6b7280" font-size="11" text-anchor="end">19°</text><line x1="42" y1="124.0" x2="784" y2="124.0" stroke="#1c222c"/><text x="38" y="128.0" fill="#6b7280" font-size="11" text-anchor="end">22°</text><line x1="42" y1="87.3" x2="784" y2="87.3" stroke="#1c222c"/><text x="38" y="91.3" fill="#6b7280" font-size="11" text-anchor="end">25°</text><line x1="42" y1="50.7" x2="784" y2="50.7" stroke="#1c222c"/><text x="38" y="54.7" fill="#6b7280" font-size="11" text-anchor="end">28°</text><line x1="42" y1="14.0" x2="784" y2="14.0" stroke="#1c222c"/><text x="38" y="18.0" fill="#6b7280" font-size="11" text-anchor="end">31°</text><g transform="translate(46,0)"><line x1="52" y1="14" x2="52" y2="234" stroke="#232a35"/><path d="M52.0,14.0 L51.0,234.0 L50.4,231.7 L49.7,229.4 L48.8,227.1 L47.6,224.7 L46.1,222.4 L44.4,220.1 L42.4,217.8 L40.3,215.5 L38.1,213.2 L35.7,210.8 L33.4,208.5 L31.2,206.2 L29.0,203.9 L27.0,201.6 L25.1,199.3 L23.3,196.9 L21.7,194.6 L20.1,192.3 L18.6,190.0 L17.1,187.7 L15.7,185.4 L14.4,183.1 L13.3,180.7 L12.3,178.4 L11.5,176.1 L11.0,173.8 L10.8,171.5 L10.9,169.2 L11.3,166.8 L11.8,164.5 L12.5,162.2 L13.3,159.9 L14.2,157.6 L15.0,155.3 L15.8,152.9 L16.4,150.6 L16.9,148.3 L17.3,146.0 L17.6,143.7 L17.8,141.4 L18.0,139.1 L18.2,136.7 L18.6,134.4 L19.1,132.1 L19.7,129.8 L20.6,127.5 L21.7,125.2 L23.1,122.8 L24.6,120.5 L26.2,118.2 L28.0,115.9 L29.8,113.6 L31.5,111.3 L33.1,108.9 L34.6,106.6 L35.9,104.3 L37.0,102.0 L37.9,99.7 L38.7,97.4 L39.4,95.1 L39.9,92.7 L40.5,90.4 L41.0,88.1 L41.5,85.8 L42.1,83.5 L42.6,81.2 L43.3,78.8 L43.9,76.5 L44.6,74.2 L45.3,71.9 L46.1,69.6 L46.8,67.3 L47.5,64.9 L48.1,62.6 L48.7,60.3 L49.2,58.0 L49.6,55.7 L50.0,53.4 L50.3,51.1 L50.5,48.7 L50.7,46.4 L50.8,44.1 L50.9,41.8 L51.0,39.5 L51.1,37.2 L51.1,34.8 L51.2,32.5 L51.3,30.2 L51.4,27.9 L51.4,25.6 L51.5,23.3 L51.6,20.9 L51.7,18.6 L51.8,16.3 L51.9,14.0 L52.0,234.0 Z" fill="rgba(124,134,152,0.28)" stroke="#7c8698" stroke-width="1.5"/><line x1="52" y1="152.5" x2="16.8" y2="152.5" stroke="#cbd5e1" stroke-width="2"/><path d="M52.0,14.0 L52.0,234.0 L52.0,231.7 L52.0,229.4 L52.0,227.1 L52.0,224.7 L52.1,222.4 L52.1,220.1 L52.3,217.8 L52.4,215.5 L52.7,213.2 L53.0,210.8 L53.5,208.5 L54.2,206.2 L55.2,203.9 L56.4,201.6 L57.9,199.3 L59.8,196.9 L62.2,194.6 L65.0,192.3 L68.3,190.0 L71.8,187.7 L75.5,185.4 L79.1,183.1 L82.3,180.7 L85.0,178.4 L87.0,176.1 L88.2,173.8 L88.7,171.5 L88.7,169.2 L88.4,166.8 L88.2,164.5 L88.2,162.2 L88.5,159.9 L89.3,157.6 L90.4,155.3 L91.6,152.9 L92.9,150.6 L94.0,148.3 L94.9,146.0 L95.5,143.7 L95.9,141.4 L96.0,139.1 L96.0,136.7 L95.9,134.4 L95.8,132.1 L95.5,129.8 L95.2,127.5 L94.7,125.2 L93.9,122.8 L92.8,120.5 L91.4,118.2 L89.6,115.9 L87.5,113.6 L85.2,111.3 L82.7,108.9 L80.1,106.6 L77.6,104.3 L75.4,102.0 L73.5,99.7 L71.9,97.4 L70.6,95.1 L69.5,92.7 L68.5,90.4 L67.7,88.1 L66.8,85.8 L66.0,83.5 L65.2,81.2 L64.4,78.8 L63.6,76.5 L62.8,74.2 L62.0,71.9 L61.1,69.6 L60.1,67.3 L59.1,64.9 L58.0,62.6 L56.9,60.3 L55.9,58.0 L55.0,55.7 L54.3,53.4 L53.8,51.1 L53.4,48.7 L53.3,46.4 L53.4,44.1 L53.6,41.8 L53.8,39.5 L54.1,37.2 L54.4,34.8 L54.7,32.5 L54.8,30.2 L54.8,27.9 L54.6,25.6 L54.4,23.3 L54.0,20.9 L53.7,18.6 L53.3,16.3 L53.0,14.0 L52.0,234.0 Z" fill="rgba(249,115,22,0.32)" stroke="#f97316" stroke-width="1.5"/><line x1="52" y1="135.3" x2="87.2" y2="135.3" stroke="#fed7aa" stroke-width="2"/><polygon points="52,177.8 57,182.8 52,187.8 47,182.8" fill="#ea580c" stroke="#fff" stroke-width="1"/><text x="52" y="274" fill="#8b93a1" font-size="11" text-anchor="middle" >Jul 17</text></g><g transform="translate(150,0)"><line x1="52" y1="14" x2="52" y2="234" stroke="#232a35"/><path d="M52.0,14.0 L51.1,234.0 L50.6,231.7 L49.9,229.4 L49.0,227.1 L47.9,224.7 L46.6,222.4 L45.0,220.1 L43.2,217.8 L41.3,215.5 L39.3,213.2 L37.3,210.8 L35.4,208.5 L33.5,206.2 L31.6,203.9 L29.9,201.6 L28.3,199.3 L26.6,196.9 L25.0,194.6 L23.5,192.3 L21.9,190.0 L20.3,187.7 L18.9,185.4 L17.5,183.1 L16.3,180.7 L15.2,178.4 L14.5,176.1 L13.9,173.8 L13.7,171.5 L13.6,169.2 L13.8,166.8 L14.1,164.5 L14.6,162.2 L15.1,159.9 L15.7,157.6 L16.2,155.3 L16.7,152.9 L17.1,150.6 L17.5,148.3 L17.7,146.0 L17.9,143.7 L18.0,141.4 L18.1,139.1 L18.1,136.7 L18.3,134.4 L18.6,132.1 L19.0,129.8 L19.6,127.5 L20.4,125.2 L21.4,122.8 L22.7,120.5 L24.3,118.2 L26.0,115.9 L27.9,113.6 L29.9,111.3 L31.9,108.9 L33.7,106.6 L35.4,104.3 L36.8,102.0 L38.0,99.7 L38.9,97.4 L39.7,95.1 L40.3,92.7 L40.7,90.4 L41.2,88.1 L41.6,85.8 L42.0,83.5 L42.5,81.2 L43.1,78.8 L43.7,76.5 L44.3,74.2 L45.1,71.9 L45.8,69.6 L46.6,67.3 L47.3,64.9 L48.0,62.6 L48.7,60.3 L49.2,58.0 L49.7,55.7 L50.1,53.4 L50.4,51.1 L50.7,48.7 L50.9,46.4 L51.1,44.1 L51.3,41.8 L51.4,39.5 L51.6,37.2 L51.7,34.8 L51.8,32.5 L51.8,30.2 L51.9,27.9 L51.9,25.6 L52.0,23.3 L52.0,20.9 L52.0,18.6 L52.0,16.3 L52.0,14.0 L52.0,234.0 Z" fill="rgba(124,134,152,0.28)" stroke="#7c8698" stroke-width="1.5"/><line x1="52" y1="151.1" x2="16.8" y2="151.1" stroke="#cbd5e1" stroke-width="2"/><path d="M52.0,14.0 L52.0,234.0 L52.0,231.7 L52.0,229.4 L52.0,227.1 L52.0,224.7 L52.0,222.4 L52.0,220.1 L52.0,217.8 L52.0,215.5 L52.1,213.2 L52.2,210.8 L52.4,208.5 L52.7,206.2 L53.2,203.9 L54.0,201.6 L55.1,199.3 L56.8,196.9 L59.1,194.6 L62.1,192.3 L65.6,190.0 L69.7,187.7 L74.0,185.4 L78.4,183.1 L82.4,180.7 L85.9,178.4 L88.5,176.1 L90.2,173.8 L91.1,171.5 L91.4,169.2 L91.3,166.8 L91.1,164.5 L91.2,162.2 L91.5,159.9 L92.2,157.6 L93.1,155.3 L94.1,152.9 L94.9,150.6 L95.6,148.3 L95.9,146.0 L96.0,143.7 L95.8,141.4 L95.5,139.1 L95.1,136.7 L94.6,134.4 L94.1,132.1 L93.6,129.8 L93.0,127.5 L92.3,125.2 L91.5,122.8 L90.4,120.5 L89.1,118.2 L87.5,115.9 L85.5,113.6 L83.2,111.3 L80.7,108.9 L78.1,106.6 L75.5,104.3 L73.0,102.0 L70.8,99.7 L68.9,97.4 L67.4,95.1 L66.1,92.7 L65.2,90.4 L64.4,88.1 L63.7,85.8 L63.2,83.5 L62.8,81.2 L62.4,78.8 L62.0,76.5 L61.5,74.2 L61.0,71.9 L60.4,69.6 L59.6,67.3 L58.7,64.9 L57.7,62.6 L56.7,60.3 L55.7,58.0 L54.8,55.7 L54.1,53.4 L53.6,51.1 L53.3,48.7 L53.2,46.4 L53.3,44.1 L53.5,41.8 L53.7,39.5 L54.1,37.2 L54.4,34.8 L54.6,32.5 L54.7,30.2 L54.7,27.9 L54.6,25.6 L54.3,23.3 L54.0,20.9 L53.6,18.6 L53.2,16.3 L52.9,14.0 L52.0,234.0 Z" fill="rgba(249,115,22,0.32)" stroke="#f97316" stroke-width="1.5"/><line x1="52" y1="136.3" x2="87.2" y2="136.3" stroke="#fed7aa" stroke-width="2"/><polygon points="52,146.3 57,151.3 52,156.3 47,151.3" fill="#ea580c" stroke="#fff" stroke-width="1"/><text x="52" y="274" fill="#8b93a1" font-size="11" text-anchor="middle" >Jul 18</text></g><g transform="translate(254,0)"><line x1="52" y1="14" x2="52" y2="234" stroke="#232a35"/><path d="M52.0,14.0 L51.3,234.0 L50.9,231.7 L50.3,229.4 L49.6,227.1 L48.8,224.7 L47.7,222.4 L46.5,220.1 L45.1,217.8 L43.6,215.5 L42.0,213.2 L40.4,210.8 L38.7,208.5 L37.1,206.2 L35.4,203.9 L33.8,201.6 L32.2,199.3 L30.6,196.9 L29.2,194.6 L27.8,192.3 L26.5,190.0 L25.3,187.7 L24.2,185.4 L23.2,183.1 L22.4,180.7 L21.7,178.4 L21.1,176.1 L20.5,173.8 L20.1,171.5 L19.7,169.2 L19.3,166.8 L19.1,164.5 L18.9,162.2 L18.9,159.9 L18.9,157.6 L19.0,155.3 L19.2,152.9 L19.5,150.6 L19.8,148.3 L20.1,146.0 L20.4,143.7 L20.6,141.4 L20.9,139.1 L21.2,136.7 L21.6,134.4 L22.0,132.1 L22.4,129.8 L23.0,127.5 L23.7,125.2 L24.6,122.8 L25.7,120.5 L27.0,118.2 L28.5,115.9 L30.1,113.6 L31.8,111.3 L33.5,108.9 L35.2,106.6 L36.7,104.3 L38.1,102.0 L39.2,99.7 L40.2,97.4 L41.0,95.1 L41.6,92.7 L42.1,90.4 L42.4,88.1 L42.7,85.8 L43.0,83.5 L43.3,81.2 L43.7,78.8 L44.2,76.5 L44.8,74.2 L45.4,71.9 L46.2,69.6 L46.9,67.3 L47.6,64.9 L48.3,62.6 L48.9,60.3 L49.5,58.0 L49.9,55.7 L50.3,53.4 L50.6,51.1 L50.8,48.7 L51.0,46.4 L51.2,44.1 L51.4,41.8 L51.5,39.5 L51.6,37.2 L51.7,34.8 L51.8,32.5 L51.9,30.2 L51.9,27.9 L51.9,25.6 L52.0,23.3 L52.0,20.9 L52.0,18.6 L52.0,16.3 L52.0,14.0 L52.0,234.0 Z" fill="rgba(124,134,152,0.28)" stroke="#7c8698" stroke-width="1.5"/><line x1="52" y1="149.7" x2="16.8" y2="149.7" stroke="#cbd5e1" stroke-width="2"/><path d="M52.0,14.0 L52.0,234.0 L52.0,231.7 L52.0,229.4 L52.0,227.1 L52.0,224.7 L52.0,222.4 L52.0,220.1 L52.0,217.8 L52.0,215.5 L52.1,213.2 L52.2,210.8 L52.3,208.5 L52.5,206.2 L53.0,203.9 L53.6,201.6 L54.7,199.3 L56.1,196.9 L58.1,194.6 L60.6,192.3 L63.6,190.0 L67.0,187.7 L70.7,185.4 L74.2,183.1 L77.4,180.7 L80.1,178.4 L81.9,176.1 L83.1,173.8 L83.6,171.5 L83.7,169.2 L83.7,166.8 L84.1,164.5 L84.9,162.2 L86.3,159.9 L88.1,157.6 L90.2,155.3 L92.3,152.9 L94.1,150.6 L95.4,148.3 L96.0,146.0 L95.9,143.7 L95.3,141.4 L94.3,139.1 L93.1,136.7 L91.8,134.4 L90.5,132.1 L89.3,129.8 L88.1,127.5 L87.0,125.2 L85.8,122.8 L84.6,120.5 L83.1,118.2 L81.5,115.9 L79.7,113.6 L77.6,111.3 L75.4,108.9 L73.2,106.6 L71.0,104.3 L69.0,102.0 L67.3,99.7 L65.9,97.4 L64.8,95.1 L63.9,92.7 L63.2,90.4 L62.7,88.1 L62.2,85.8 L61.8,83.5 L61.4,81.2 L61.1,78.8 L60.7,76.5 L60.4,74.2 L60.0,71.9 L59.4,69.6 L58.7,67.3 L57.9,64.9 L57.0,62.6 L56.1,60.3 L55.2,58.0 L54.4,55.7 L53.8,53.4 L53.4,51.1 L53.1,48.7 L53.0,46.4 L53.1,44.1 L53.3,41.8 L53.5,39.5 L53.8,37.2 L54.1,34.8 L54.3,32.5 L54.4,30.2 L54.4,27.9 L54.3,25.6 L54.1,23.3 L53.8,20.9 L53.4,18.6 L53.1,16.3 L52.8,14.0 L52.0,234.0 Z" fill="rgba(249,115,22,0.32)" stroke="#f97316" stroke-width="1.5"/><line x1="52" y1="136.3" x2="87.2" y2="136.3" stroke="#fed7aa" stroke-width="2"/><polygon points="52,123.1 57,128.1 52,133.1 47,128.1" fill="#ea580c" stroke="#fff" stroke-width="1"/><text x="52" y="274" fill="#8b93a1" font-size="11" text-anchor="middle" >Jul 19</text></g><g transform="translate(358,0)"><line x1="52" y1="14" x2="52" y2="234" stroke="#232a35"/><path d="M52.0,14.0 L51.1,234.0 L50.6,231.7 L49.9,229.4 L49.1,227.1 L48.1,224.7 L47.0,222.4 L45.6,220.1 L44.2,217.8 L42.6,215.5 L41.0,213.2 L39.3,210.8 L37.6,208.5 L35.9,206.2 L34.1,203.9 L32.4,201.6 L30.6,199.3 L28.8,196.9 L27.0,194.6 L25.4,192.3 L23.8,190.0 L22.4,187.7 L21.1,185.4 L20.0,183.1 L19.1,180.7 L18.3,178.4 L17.6,176.1 L17.1,173.8 L16.7,171.5 L16.4,169.2 L16.3,166.8 L16.2,164.5 L16.2,162.2 L16.3,159.9 L16.5,157.6 L16.7,155.3 L16.9,152.9 L17.1,150.6 L17.4,148.3 L17.6,146.0 L17.8,143.7 L18.0,141.4 L18.1,139.1 L18.2,136.7 L18.4,134.4 L18.5,132.1 L18.8,129.8 L19.1,127.5 L19.6,125.2 L20.2,122.8 L21.2,120.5 L22.4,118.2 L23.8,115.9 L25.5,113.6 L27.3,111.3 L29.2,108.9 L31.1,106.6 L32.9,104.3 L34.5,102.0 L35.9,99.7 L37.1,97.4 L38.0,95.1 L38.8,92.7 L39.3,90.4 L39.8,88.1 L40.2,85.8 L40.7,83.5 L41.2,81.2 L41.7,78.8 L42.4,76.5 L43.1,74.2 L43.9,71.9 L44.8,69.6 L45.6,67.3 L46.4,64.9 L47.2,62.6 L48.0,60.3 L48.6,58.0 L49.2,55.7 L49.7,53.4 L50.1,51.1 L50.5,48.7 L50.8,46.4 L51.0,44.1 L51.2,41.8 L51.4,39.5 L51.5,37.2 L51.7,34.8 L51.8,32.5 L51.8,30.2 L51.9,27.9 L51.9,25.6 L52.0,23.3 L52.0,20.9 L52.0,18.6 L52.0,16.3 L52.0,14.0 L52.0,234.0 Z" fill="rgba(124,134,152,0.28)" stroke="#7c8698" stroke-width="1.5"/><line x1="52" y1="148.1" x2="16.8" y2="148.1" stroke="#cbd5e1" stroke-width="2"/><path d="M52.0,14.0 L52.0,234.0 L52.0,231.7 L52.0,229.4 L52.0,227.1 L52.0,224.7 L52.0,222.4 L52.0,220.1 L52.0,217.8 L52.1,215.5 L52.1,213.2 L52.2,210.8 L52.4,208.5 L52.7,206.2 L53.2,203.9 L54.1,201.6 L55.3,199.3 L57.0,196.9 L59.2,194.6 L62.1,192.3 L65.6,190.0 L69.5,187.7 L73.7,185.4 L77.9,183.1 L81.9,180.7 L85.3,178.4 L88.0,176.1 L89.8,173.8 L91.0,171.5 L91.5,169.2 L91.6,166.8 L91.7,164.5 L91.8,162.2 L92.3,159.9 L92.9,157.6 L93.8,155.3 L94.7,152.9 L95.5,150.6 L95.9,148.3 L96.0,146.0 L95.7,143.7 L94.9,141.4 L94.0,139.1 L92.8,136.7 L91.7,134.4 L90.5,132.1 L89.4,129.8 L88.4,127.5 L87.4,125.2 L86.4,122.8 L85.3,120.5 L84.2,118.2 L82.9,115.9 L81.5,113.6 L80.0,111.3 L78.3,108.9 L76.7,106.6 L75.0,104.3 L73.4,102.0 L71.9,99.7 L70.7,97.4 L69.5,95.1 L68.6,92.7 L67.8,90.4 L67.2,88.1 L66.6,85.8 L66.1,83.5 L65.7,81.2 L65.3,78.8 L64.9,76.5 L64.3,74.2 L63.6,71.9 L62.6,69.6 L61.5,67.3 L60.2,64.9 L58.9,62.6 L57.5,60.3 L56.3,58.0 L55.3,55.7 L54.4,53.4 L53.8,51.1 L53.4,48.7 L53.3,46.4 L53.3,44.1 L53.5,41.8 L53.8,39.5 L54.1,37.2 L54.3,34.8 L54.6,32.5 L54.7,30.2 L54.7,27.9 L54.5,25.6 L54.3,23.3 L54.0,20.9 L53.6,18.6 L53.2,16.3 L52.9,14.0 L52.0,234.0 Z" fill="rgba(249,115,22,0.32)" stroke="#f97316" stroke-width="1.5"/><line x1="52" y1="135.3" x2="87.2" y2="135.3" stroke="#fed7aa" stroke-width="2"/><polygon points="52,99.8 57,104.8 52,109.8 47,104.8" fill="#ea580c" stroke="#fff" stroke-width="1"/><text x="52" y="274" fill="#8b93a1" font-size="11" text-anchor="middle" >Jul 20</text></g><g transform="translate(462,0)"><line x1="52" y1="14" x2="52" y2="234" stroke="#232a35"/><path d="M52.0,14.0 L51.1,234.0 L50.7,231.7 L50.1,229.4 L49.4,227.1 L48.5,224.7 L47.5,222.4 L46.3,220.1 L45.1,217.8 L43.7,215.5 L42.3,213.2 L40.8,210.8 L39.3,208.5 L37.8,206.2 L36.3,203.9 L34.8,201.6 L33.3,199.3 L31.8,196.9 L30.3,194.6 L28.9,192.3 L27.5,190.0 L26.1,187.7 L24.9,185.4 L23.7,183.1 L22.7,180.7 L21.7,178.4 L20.9,176.1 L20.3,173.8 L19.8,171.5 L19.5,169.2 L19.3,166.8 L19.3,164.5 L19.3,162.2 L19.5,159.9 L19.8,157.6 L20.0,155.3 L20.2,152.9 L20.4,150.6 L20.5,148.3 L20.5,146.0 L20.5,143.7 L20.5,141.4 L20.5,139.1 L20.5,136.7 L20.6,134.4 L20.7,132.1 L20.9,129.8 L21.3,127.5 L21.8,125.2 L22.5,122.8 L23.4,120.5 L24.5,118.2 L25.9,115.9 L27.4,113.6 L28.9,111.3 L30.5,108.9 L32.1,106.6 L33.5,104.3 L34.8,102.0 L35.8,99.7 L36.7,97.4 L37.5,95.1 L38.0,92.7 L38.5,90.4 L39.0,88.1 L39.5,85.8 L40.0,83.5 L40.6,81.2 L41.2,78.8 L42.0,76.5 L42.9,74.2 L43.7,71.9 L44.7,69.6 L45.6,67.3 L46.4,64.9 L47.2,62.6 L48.0,60.3 L48.6,58.0 L49.2,55.7 L49.7,53.4 L50.2,51.1 L50.5,48.7 L50.8,46.4 L51.1,44.1 L51.3,41.8 L51.4,39.5 L51.6,37.2 L51.7,34.8 L51.8,32.5 L51.8,30.2 L51.9,27.9 L51.9,25.6 L52.0,23.3 L52.0,20.9 L52.0,18.6 L52.0,16.3 L52.0,14.0 L52.0,234.0 Z" fill="rgba(124,134,152,0.28)" stroke="#7c8698" stroke-width="1.5"/><line x1="52" y1="146.5" x2="16.8" y2="146.5" stroke="#cbd5e1" stroke-width="2"/><path d="M52.0,14.0 L52.0,234.0 L52.0,231.7 L52.0,229.4 L52.0,227.1 L52.0,224.7 L52.0,222.4 L52.0,220.1 L52.1,217.8 L52.1,215.5 L52.2,213.2 L52.3,210.8 L52.6,208.5 L53.0,206.2 L53.6,203.9 L54.5,201.6 L55.8,199.3 L57.4,196.9 L59.5,194.6 L62.2,192.3 L65.2,190.0 L68.6,187.7 L72.2,185.4 L75.8,183.1 L79.2,180.7 L82.2,178.4 L84.6,176.1 L86.3,173.8 L87.5,171.5 L88.2,169.2 L88.6,166.8 L88.9,164.5 L89.4,162.2 L90.2,159.9 L91.2,157.6 L92.5,155.3 L93.8,152.9 L95.0,150.6 L95.8,148.3 L96.0,146.0 L95.6,143.7 L94.7,141.4 L93.3,139.1 L91.6,136.7 L89.7,134.4 L87.9,132.1 L86.1,129.8 L84.5,127.5 L83.1,125.2 L81.8,122.8 L80.7,120.5 L79.7,118.2 L78.7,115.9 L77.7,113.6 L76.8,111.3 L75.8,108.9 L74.8,106.6 L73.8,104.3 L72.8,102.0 L71.8,99.7 L70.7,97.4 L69.6,95.1 L68.6,92.7 L67.6,90.4 L66.6,88.1 L65.6,85.8 L64.7,83.5 L63.9,81.2 L63.0,78.8 L62.2,76.5 L61.3,74.2 L60.4,71.9 L59.4,69.6 L58.3,67.3 L57.3,64.9 L56.3,62.6 L55.3,60.3 L54.5,58.0 L53.9,55.7 L53.4,53.4 L53.1,51.1 L52.9,48.7 L52.9,46.4 L53.1,44.1 L53.3,41.8 L53.6,39.5 L53.9,37.2 L54.2,34.8 L54.4,32.5 L54.5,30.2 L54.5,27.9 L54.3,25.6 L54.1,23.3 L53.8,20.9 L53.5,18.6 L53.2,16.3 L52.9,14.0 L52.0,234.0 Z" fill="rgba(249,115,22,0.32)" stroke="#f97316" stroke-width="1.5"/><line x1="52" y1="136.7" x2="87.2" y2="136.7" stroke="#fed7aa" stroke-width="2"/><polygon points="52,139.4 57,144.4 52,149.4 47,144.4" fill="#ea580c" stroke="#fff" stroke-width="1"/><text x="52" y="274" fill="#8b93a1" font-size="11" text-anchor="middle" >Jul 21</text></g><g transform="translate(566,0)"><line x1="52" y1="14" x2="52" y2="234" stroke="#232a35"/><path d="M52.0,14.0 L51.3,234.0 L50.9,231.7 L50.4,229.4 L49.8,227.1 L49.1,224.7 L48.2,222.4 L47.3,220.1 L46.3,217.8 L45.3,215.5 L44.2,213.2 L43.1,210.8 L42.0,208.5 L40.9,206.2 L39.6,203.9 L38.3,201.6 L37.0,199.3 L35.5,196.9 L34.1,194.6 L32.6,192.3 L31.2,190.0 L29.9,187.7 L28.6,185.4 L27.4,183.1 L26.3,180.7 L25.4,178.4 L24.5,176.1 L23.7,173.8 L23.0,171.5 L22.5,169.2 L22.1,166.8 L22.0,164.5 L22.0,162.2 L22.1,159.9 L22.4,157.6 L22.7,155.3 L23.0,152.9 L23.2,150.6 L23.3,148.3 L23.4,146.0 L23.3,143.7 L23.3,141.4 L23.2,139.1 L23.2,136.7 L23.3,134.4 L23.4,132.1 L23.6,129.8 L23.9,127.5 L24.4,125.2 L25.1,122.8 L25.9,120.5 L26.9,118.2 L28.0,115.9 L29.2,113.6 L30.5,111.3 L31.7,108.9 L32.9,106.6 L33.9,104.3 L34.9,102.0 L35.7,99.7 L36.4,97.4 L37.1,95.1 L37.6,92.7 L38.2,90.4 L38.7,88.1 L39.3,85.8 L39.9,83.5 L40.6,81.2 L41.4,78.8 L42.3,76.5 L43.3,74.2 L44.2,71.9 L45.2,69.6 L46.1,67.3 L47.0,64.9 L47.8,62.6 L48.4,60.3 L49.0,58.0 L49.4,55.7 L49.8,53.4 L50.2,51.1 L50.4,48.7 L50.7,46.4 L50.9,44.1 L51.1,41.8 L51.3,39.5 L51.5,37.2 L51.6,34.8 L51.7,32.5 L51.8,30.2 L51.9,27.9 L51.9,25.6 L52.0,23.3 L52.0,20.9 L52.0,18.6 L52.0,16.3 L52.0,14.0 L52.0,234.0 Z" fill="rgba(124,134,152,0.28)" stroke="#7c8698" stroke-width="1.5"/><line x1="52" y1="144.5" x2="16.8" y2="144.5" stroke="#cbd5e1" stroke-width="2"/><path d="M52.0,14.0 L52.0,234.0 L52.0,231.7 L52.0,229.4 L52.0,227.1 L52.0,224.7 L52.0,222.4 L52.1,220.1 L52.1,217.8 L52.2,215.5 L52.4,213.2 L52.6,210.8 L53.0,208.5 L53.6,206.2 L54.4,203.9 L55.5,201.6 L57.0,199.3 L58.8,196.9 L60.9,194.6 L63.4,192.3 L66.1,190.0 L68.9,187.7 L71.7,185.4 L74.3,183.1 L76.6,180.7 L78.6,178.4 L80.2,176.1 L81.4,173.8 L82.2,171.5 L82.9,169.2 L83.6,166.8 L84.4,164.5 L85.5,162.2 L86.9,159.9 L88.7,157.6 L90.7,155.3 L92.6,152.9 L94.3,150.6 L95.5,148.3 L96.0,146.0 L95.8,143.7 L94.8,141.4 L93.3,139.1 L91.3,136.7 L89.0,134.4 L86.7,132.1 L84.4,129.8 L82.3,127.5 L80.4,125.2 L78.6,122.8 L77.0,120.5 L75.6,118.2 L74.2,115.9 L73.0,113.6 L71.8,111.3 L70.6,108.9 L69.6,106.6 L68.5,104.3 L67.6,102.0 L66.6,99.7 L65.8,97.4 L65.0,95.1 L64.3,92.7 L63.6,90.4 L63.1,88.1 L62.6,85.8 L62.1,83.5 L61.7,81.2 L61.2,78.8 L60.7,76.5 L60.1,74.2 L59.4,71.9 L58.6,69.6 L57.7,67.3 L56.8,64.9 L55.8,62.6 L55.0,60.3 L54.3,58.0 L53.7,55.7 L53.3,53.4 L53.0,51.1 L52.9,48.7 L52.9,46.4 L53.0,44.1 L53.2,41.8 L53.4,39.5 L53.7,37.2 L54.0,34.8 L54.2,32.5 L54.3,30.2 L54.2,27.9 L54.1,25.6 L53.9,23.3 L53.7,20.9 L53.3,18.6 L53.0,16.3 L52.8,14.0 L52.0,234.0 Z" fill="rgba(249,115,22,0.32)" stroke="#f97316" stroke-width="1.5"/><line x1="52" y1="138.6" x2="87.2" y2="138.6" stroke="#fed7aa" stroke-width="2"/><polygon points="52,162.6 57,167.6 52,172.6 47,167.6" fill="#ea580c" stroke="#fff" stroke-width="1"/><text x="52" y="274" fill="#8b93a1" font-size="11" text-anchor="middle" >Jul 22</text></g><g transform="translate(670,0)"><line x1="52" y1="14" x2="52" y2="234" stroke="#232a35"/><path d="M52.0,14.0 L51.3,234.0 L51.0,231.7 L50.5,229.4 L50.0,227.1 L49.3,224.7 L48.6,222.4 L47.9,220.1 L47.0,217.8 L46.2,215.5 L45.4,213.2 L44.5,210.8 L43.6,208.5 L42.7,206.2 L41.7,203.9 L40.6,201.6 L39.4,199.3 L38.1,196.9 L36.6,194.6 L35.1,192.3 L33.5,190.0 L31.9,187.7 L30.2,185.4 L28.7,183.1 L27.2,180.7 L25.8,178.4 L24.7,176.1 L23.7,173.8 L23.0,171.5 L22.5,169.2 L22.3,166.8 L22.3,164.5 L22.5,162.2 L22.8,159.9 L23.3,157.6 L23.8,155.3 L24.3,152.9 L24.8,150.6 L25.2,148.3 L25.5,146.0 L25.7,143.7 L25.8,141.4 L25.9,139.1 L25.9,136.7 L25.9,134.4 L26.0,132.1 L26.1,129.8 L26.2,127.5 L26.4,125.2 L26.8,122.8 L27.3,120.5 L28.0,118.2 L28.8,115.9 L29.8,113.6 L30.8,111.3 L31.9,108.9 L33.0,106.6 L34.1,104.3 L35.2,102.0 L36.1,99.7 L36.8,97.4 L37.5,95.1 L38.0,92.7 L38.5,90.4 L38.9,88.1 L39.3,85.8 L39.8,83.5 L40.4,81.2 L41.0,78.8 L41.8,76.5 L42.6,74.2 L43.5,71.9 L44.4,69.6 L45.3,67.3 L46.2,64.9 L46.9,62.6 L47.6,60.3 L48.2,58.0 L48.7,55.7 L49.2,53.4 L49.6,51.1 L50.0,48.7 L50.3,46.4 L50.6,44.1 L50.9,41.8 L51.2,39.5 L51.4,37.2 L51.5,34.8 L51.7,32.5 L51.8,30.2 L51.9,27.9 L51.9,25.6 L51.9,23.3 L52.0,20.9 L52.0,18.6 L52.0,16.3 L52.0,14.0 L52.0,234.0 Z" fill="rgba(124,134,152,0.28)" stroke="#7c8698" stroke-width="1.5"/><line x1="52" y1="142.8" x2="16.8" y2="142.8" stroke="#cbd5e1" stroke-width="2"/><path d="M52.0,14.0 L52.0,234.0 L52.0,231.7 L52.0,229.4 L52.0,227.1 L52.0,224.7 L52.0,222.4 L52.1,220.1 L52.1,217.8 L52.2,215.5 L52.3,213.2 L52.6,210.8 L52.9,208.5 L53.4,206.2 L54.2,203.9 L55.2,201.6 L56.4,199.3 L58.0,196.9 L59.8,194.6 L62.0,192.3 L64.3,190.0 L66.8,187.7 L69.4,185.4 L72.0,183.1 L74.4,180.7 L76.7,178.4 L78.8,176.1 L80.7,173.8 L82.4,171.5 L84.1,169.2 L85.7,166.8 L87.3,164.5 L88.9,162.2 L90.6,159.9 L92.2,157.6 L93.7,155.3 L94.9,152.9 L95.7,150.6 L96.0,148.3 L95.7,146.0 L94.7,143.7 L93.3,141.4 L91.3,139.1 L89.0,136.7 L86.6,134.4 L84.1,132.1 L81.6,129.8 L79.2,127.5 L77.0,125.2 L75.0,122.8 L73.2,120.5 L71.6,118.2 L70.3,115.9 L69.1,113.6 L68.1,111.3 L67.3,108.9 L66.6,106.6 L65.9,104.3 L65.3,102.0 L64.8,99.7 L64.3,97.4 L63.8,95.1 L63.3,92.7 L62.8,90.4 L62.4,88.1 L62.0,85.8 L61.6,83.5 L61.2,81.2 L60.8,78.8 L60.3,76.5 L59.7,74.2 L59.0,71.9 L58.3,69.6 L57.4,67.3 L56.5,64.9 L55.7,62.6 L54.9,60.3 L54.2,58.0 L53.6,55.7 L53.2,53.4 L53.0,51.1 L52.8,48.7 L52.8,46.4 L52.9,44.1 L53.1,41.8 L53.4,39.5 L53.6,37.2 L53.9,34.8 L54.0,32.5 L54.1,30.2 L54.1,27.9 L54.0,25.6 L53.8,23.3 L53.6,20.9 L53.3,18.6 L53.0,16.3 L52.7,14.0 L52.0,234.0 Z" fill="rgba(249,115,22,0.32)" stroke="#f97316" stroke-width="1.5"/><line x1="52" y1="139.5" x2="87.2" y2="139.5" stroke="#fed7aa" stroke-width="2"/><polygon points="52,167.3 57,172.3 52,177.3 47,172.3" fill="#ea580c" stroke="#fff" stroke-width="1"/><text x="52" y="274" fill="#e7e9ee" font-size="11" text-anchor="middle" font-weight="600">Today</text></g></svg>