<svg xmlns="http://www.w3.org/2000/svg" width="794" height="290" viewBox="0 0 794 290" font-family="system-ui,sans-serif"><rect width="794" height="290" fill="#0f1115"/><text x="38" y="10" fill="#8b93a1" font-size="10" text-anchor="end">°C</text><line x1="42" y1="234.0" x2="784" y2="234.0" stroke="#1c222c"/><text x="38" y="238.0" fill="#6b7280" font-size="11" text-anchor="end">12°</text><line x1="42" y1="197.3" x2="784" y2="197.3" stroke="#1c222c"/><text x="38" y="201.3" fill="#6b7280" font-size="11" text-anchor="end">15°</text><line x1="42" y1="160.7" x2="784" y2="160.7" stroke="#1c222c"/><text x="38" y="164.7" fill="#6b7280" font-size="11" text-anchor="end">19°</text><line x1="42" y1="124.0" x2="784" y2="124.0" stroke="#1c222c"/><text x="38" y="128.0" fill="#6b7280" font-size="11" text-anchor="end">22°</text><line x1="42" y1="87.3" x2="784" y2="87.3" stroke="#1c222c"/><text x="38" y="91.3" fill="#6b7280" font-size="11" text-anchor="end">25°</text><line x1="42" y1="50.7" x2="784" y2="50.7" stroke="#1c222c"/><text x="38" y="54.7" fill="#6b7280" font-size="11" text-anchor="end">28°</text><line x1="42" y1="14.0" x2="784" y2="14.0" stroke="#1c222c"/><text x="38" y="18.0" fill="#6b7280" font-size="11" text-anchor="end">31°</text><g transform="translate(46,0)"><line x1="52" y1="14" x2="52" y2="234" stroke="#232a35"/><path d="M52.0,14.0 L50.8,234.0 L50.3,231.7 L49.5,229.4 L48.5,227.1 L47.3,224.7 L45.8,222.4 L44.0,220.1 L42.1,217.8 L39.9,215.5 L37.7,213.2 L35.3,210.8 L33.0,208.5 L30.8,206.2 L28.6,203.9 L26.5,201.6 L24.5,199.3 L22.7,196.9 L21.0,194.6 L19.3,192.3 L17.8,190.0 L16.3,187.7 L14.9,185.4 L13.6,183.1 L12.4,180.7 L11.5,178.4 L10.7,176.1 L10.2,173.8 L10.0,171.5 L10.1,169.2 L10.4,166.8 L10.9,164.5 L11.6,162.2 L12.4,159.9 L13.2,157.6 L14.1,155.3 L14.8,152.9 L15.4,150.6 L16.0,148.3 L16.4,146.0 L16.7,143.7 L16.9,141.4 L17.2,139.1 L17.5,136.7 L17.9,134.4 L18.4,132.1 L19.1,129.8 L20.0,127.5 L21.1,125.2 L22.5,122.8 L24.0,120.5 L25.7,118.2 L27.4,115.9 L29.2,113.6 L30.9,111.3 L32.5,108.9 L34.0,106.6 L35.3,104.3 L36.5,102.0 L37.5,99.7 L38.3,97.4 L39.0,95.1 L39.6,92.7 L40.2,90.4 L40.7,88.1 L41.3,85.8 L41.8,83.5 L42.4,81.2 L43.1,78.8 L43.8,76.5 L44.5,74.2 L45.2,71.9 L45.9,69.6 L46.6,67.3 L47.3,64.9 L48.0,62.6 L48.5,60.3 L49.1,58.0 L49.5,55.7 L49.9,53.4 L50.2,51.1 L50.4,48.7 L50.6,46.4 L50.8,44.1 L50.9,41.8 L51.0,39.5 L51.0,37.2 L51.1,34.8 L51.2,32.5 L51.3,30.2 L51.3,27.9 L51.4,25.6 L51.5,23.3 L51.6,20.9 L51.7,18.6 L51.8,16.3 L51.8,14.0 L52.0,234.0 Z" fill="rgba(124,134,152,0.28)" stroke="#7c8698" stroke-width="1.5"/><line x1="52" y1="152.5" x2="16.8" y2="152.5" stroke="#cbd5e1" stroke-width="2"/><path d="M52.0,14.0 L52.0,234.0 L52.1,231.7 L52.1,229.4 L52.2,227.1 L52.3,224.7 L52.4,222.4 L52.6,220.1 L52.9,217.8 L53.2,215.5 L53.7,213.2 L54.3,210.8 L55.1,208.5 L56.1,206.2 L57.4,203.9 L58.9,201.6 L60.6,199.3 L62.6,196.9 L64.9,194.6 L67.3,192.3 L69.9,190.0 L72.6,187.7 L75.2,185.4 L77.7,183.1 L80.1,180.7 L82.2,178.4 L84.1,176.1 L85.6,173.8 L86.9,171.5 L87.9,169.2 L88.7,166.8 L89.4,164.5 L90.1,162.2 L90.7,159.9 L91.4,157.6 L92.1,155.3 L92.8,152.9 L93.5,150.6 L94.1,148.3 L94.7,146.0 L95.3,143.7 L95.6,141.4 L95.9,139.1 L96.0,136.7 L95.9,134.4 L95.7,132.1 L95.3,129.8 L94.7,127.5 L94.0,125.2 L93.0,122.8 L91.8,120.5 L90.4,118.2 L88.8,115.9 L87.0,113.6 L85.2,111.3 L83.2,108.9 L81.2,106.6 L79.3,104.3 L77.4,102.0 L75.6,99.7 L73.9,97.4 L72.4,95.1 L71.0,92.7 L69.8,90.4 L68.6,88.1 L67.6,85.8 L66.6,83.5 L65.6,81.2 L64.7,78.8 L63.8,76.5 L62.9,74.2 L62.0,71.9 L61.1,69.6 L60.2,67.3 L59.3,64.9 L58.4,62.6 L57.5,60.3 L56.8,58.0 L56.1,55.7 L55.5,53.4 L55.0,51.1 L54.6,48.7 L54.4,46.4 L54.2,44.1 L54.2,41.8 L54.2,39.5 L54.2,37.2 L54.2,34.8 L54.2,32.5 L54.2,30.2 L54.2,27.9 L54.1,25.6 L54.0,23.3 L53.8,20.9 L53.6,18.6 L53.4,16.3 L53.2,14.0 L52.0,234.0 Z" fill="rgba(249,115,22,0.32)" stroke="#f97316" stroke-width="1.5"/><line x1="52" y1="135.3" x2="87.2" y2="135.3" stroke="#fed7aa" stroke-width="2"/><polygon points="52,177.8 57,182.8 52,187.8 47,182.8" fill="#ea580c" stroke="#fff" stroke-width="1"/><text x="52" y="274" fill="#8b93a1" font-size="11" text-anchor="middle" >Jul 17</text></g><g transform="translate(150,0)"><line x1="52" y1="14" x2="52" y2="234" stroke="#232a35"/><path d="M52.0,14.0 L50.9,234.0 L50.4,231.7 L49.7,229.4 L48.8,227.1 L47.6,224.7 L46.2,222.4 L44.7,220.1 L42.9,217.8 L41.0,215.5 L39.0,213.2 L37.0,210.8 L35.0,208.5 L33.0,206.2 L31.1,203.9 L29.3,201.6 L27.6,199.3 L25.9,196.9 L24.3,194.6 L22.7,192.3 L21.1,190.0 L19.5,187.7 L18.0,185.4 L16.6,183.1 L15.4,180.7 L14.4,178.4 L13.6,176.1 L13.1,173.8 L12.8,171.5 L12.7,169.2 L12.9,166.8 L13.2,164.5 L13.6,162.2 L14.1,159.9 L14.6,157.6 L15.2,155.3 L15.7,152.9 L16.1,150.6 L16.4,148.3 L16.7,146.0 L16.9,143.7 L17.0,141.4 L17.1,139.1 L17.3,136.7 L17.5,134.4 L17.8,132.1 L18.2,129.8 L18.8,127.5 L19.7,125.2 L20.8,122.8 L22.1,120.5 L23.7,118.2 L25.4,115.9 L27.3,113.6 L29.3,111.3 L31.2,108.9 L33.1,106.6 L34.7,104.3 L36.2,102.0 L37.4,99.7 L38.4,97.4 L39.2,95.1 L39.9,92.7 L40.4,90.4 L40.9,88.1 L41.3,85.8 L41.8,83.5 L42.3,81.2 L42.9,78.8 L43.5,76.5 L44.2,74.2 L44.9,71.9 L45.7,69.6 L46.4,67.3 L47.2,64.9 L47.9,62.6 L48.5,60.3 L49.1,58.0 L49.6,55.7 L50.0,53.4 L50.3,51.1 L50.6,48.7 L50.9,46.4 L51.1,44.1 L51.2,41.8 L51.4,39.5 L51.5,37.2 L51.6,34.8 L51.7,32.5 L51.8,30.2 L51.9,27.9 L51.9,25.6 L51.9,23.3 L52.0,20.9 L52.0,18.6 L52.0,16.3 L52.0,14.0 L52.0,234.0 Z" fill="rgba(124,134,152,0.28)" stroke="#7c8698" stroke-width="1.5"/><line x1="52" y1="151.1" x2="16.8" y2="151.1" stroke="#cbd5e1" stroke-width="2"/><path d="M52.0,14.0 L52.0,234.0 L52.0,231.7 L52.0,229.4 L52.0,227.1 L52.1,224.7 L52.1,222.4 L52.2,220.1 L52.3,217.8 L52.4,215.5 L52.7,213.2 L53.1,210.8 L53.6,208.5 L54.4,206.2 L55.4,203.9 L56.7,201.6 L58.3,199.3 L60.3,196.9 L62.6,194.6 L65.3,192.3 L68.2,190.0 L71.2,187.7 L74.4,185.4 L77.5,183.1 L80.4,180.7 L83.1,178.4 L85.4,176.1 L87.4,173.8 L89.0,171.5 L90.2,169.2 L91.3,166.8 L92.1,164.5 L92.7,162.2 L93.3,159.9 L93.9,157.6 L94.4,155.3 L94.9,152.9 L95.3,150.6 L95.6,148.3 L95.9,146.0 L96.0,143.7 L96.0,141.4 L95.9,139.1 L95.6,136.7 L95.2,134.4 L94.7,132.1 L94.0,129.8 L93.2,127.5 L92.3,125.2 L91.2,122.8 L89.9,120.5 L88.4,118.2 L86.8,115.9 L85.0,113.6 L83.0,111.3 L81.0,108.9 L78.9,106.6 L76.8,104.3 L74.8,102.0 L72.9,99.7 L71.1,97.4 L69.5,95.1 L68.1,92.7 L66.9,90.4 L65.8,88.1 L64.9,85.8 L64.1,83.5 L63.4,81.2 L62.7,78.8 L62.1,76.5 L61.4,74.2 L60.8,71.9 L60.1,69.6 L59.3,67.3 L58.6,64.9 L57.8,62.6 L57.1,60.3 L56.4,58.0 L55.7,55.7 L55.2,53.4 L54.7,51.1 L54.4,48.7 L54.2,46.4 L54.1,44.1 L54.0,41.8 L54.0,39.5 L54.1,37.2 L54.2,34.8 L54.2,32.5 L54.2,30.2 L54.2,27.9 L54.1,25.6 L54.0,23.3 L53.8,20.9 L53.6,18.6 L53.4,16.3 L53.1,14.0 L52.0,234.0 Z" fill="rgba(249,115,22,0.32)" stroke="#f97316" stroke-width="1.5"/><line x1="52" y1="136.3" x2="87.2" y2="136.3" stroke="#fed7aa" stroke-width="2"/><polygon points="52,146.3 57,151.3 52,156.3 47,151.3" fill="#ea580c" stroke="#fff" stroke-width="1"/><text x="52" y="274" fill="#8b93a1" font-size="11" text-anchor="middle" >Jul 18</text></g><g transform="translate(254,0)"><line x1="52" y1="14" x2="52" y2="234" stroke="#232a35"/><path d="M52.0,14.0 L51.1,234.0 L50.7,231.7 L50.1,229.4 L49.4,227.1 L48.5,224.7 L47.4,222.4 L46.2,220.1 L44.8,217.8 L43.3,215.5 L41.7,213.2 L40.1,210.8 L38.4,208.5 L36.7,206.2 L35.0,203.9 L33.4,201.6 L31.7,199.3 L30.2,196.9 L28.7,194.6 L27.2,192.3 L25.9,190.0 L24.7,187.7 L23.6,185.4 L22.6,183.1 L21.8,180.7 L21.0,178.4 L20.4,176.1 L19.8,173.8 L19.3,171.5 L18.9,169.2 L18.6,166.8 L18.3,164.5 L18.2,162.2 L18.1,159.9 L18.1,157.6 L18.3,155.3 L18.5,152.9 L18.7,150.6 L19.0,148.3 L19.3,146.0 L19.6,143.7 L19.9,141.4 L20.2,139.1 L20.5,136.7 L20.8,134.4 L21.3,132.1 L21.8,129.8 L22.4,127.5 L23.2,125.2 L24.1,122.8 L25.2,120.5 L26.5,118.2 L28.0,115.9 L29.6,113.6 L31.3,111.3 L33.0,108.9 L34.6,106.6 L36.2,104.3 L37.6,102.0 L38.8,99.7 L39.8,97.4 L40.6,95.1 L41.2,92.7 L41.7,90.4 L42.1,88.1 L42.5,85.8 L42.8,83.5 L43.2,81.2 L43.6,78.8 L44.1,76.5 L44.7,74.2 L45.3,71.9 L46.0,69.6 L46.8,67.3 L47.5,64.9 L48.2,62.6 L48.8,60.3 L49.3,58.0 L49.8,55.7 L50.2,53.4 L50.5,51.1 L50.8,48.7 L51.0,46.4 L51.2,44.1 L51.3,41.8 L51.5,39.5 L51.6,37.2 L51.7,34.8 L51.8,32.5 L51.8,30.2 L51.9,27.9 L51.9,25.6 L52.0,23.3 L52.0,20.9 L52.0,18.6 L52.0,16.3 L52.0,14.0 L52.0,234.0 Z" fill="rgba(124,134,152,0.28)" stroke="#7c8698" stroke-width="1.5"/><line x1="52" y1="149.7" x2="16.8" y2="149.7" stroke="#cbd5e1" stroke-width="2"/><path d="M52.0,14.0 L52.0,234.0 L52.0,231.7 L52.0,229.4 L52.0,227.1 L52.0,224.7 L52.0,222.4 L52.0,220.1 L52.0,217.8 L52.1,215.5 L52.2,213.2 L52.3,210.8 L52.6,208.5 L52.9,206.2 L53.5,203.9 L54.4,201.6 L55.6,199.3 L57.2,196.9 L59.2,194.6 L61.7,192.3 L64.6,190.0 L67.7,187.7 L71.0,185.4 L74.1,183.1 L77.0,180.7 L79.5,178.4 L81.4,176.1 L82.7,173.8 L83.7,171.5 L84.3,169.2 L84.9,166.8 L85.6,164.5 L86.6,162.2 L87.9,159.9 L89.4,157.6 L91.1,155.3 L92.8,152.9 L94.3,150.6 L95.3,148.3 L95.9,146.0 L96.0,143.7 L95.6,141.4 L94.9,139.1 L93.9,136.7 L92.7,134.4 L91.5,132.1 L90.3,129.8 L89.0,127.5 L87.8,125.2 L86.5,122.8 L85.1,120.5 L83.5,118.2 L81.8,115.9 L80.0,113.6 L78.0,111.3 L75.9,108.9 L73.8,106.6 L71.8,104.3 L69.9,102.0 L68.3,99.7 L66.8,97.4 L65.6,95.1 L64.6,92.7 L63.8,90.4 L63.1,88.1 L62.6,85.8 L62.1,83.5 L61.7,81.2 L61.3,78.8 L60.9,76.5 L60.5,74.2 L59.9,71.9 L59.4,69.6 L58.7,67.3 L57.9,64.9 L57.1,62.6 L56.3,60.3 L55.5,58.0 L54.8,55.7 L54.2,53.4 L53.8,51.1 L53.5,48.7 L53.3,46.4 L53.3,44.1 L53.5,41.8 L53.6,39.5 L53.8,37.2 L54.0,34.8 L54.2,32.5 L54.3,30.2 L54.3,27.9 L54.2,25.6 L54.0,23.3 L53.7,20.9 L53.5,18.6 L53.2,16.3 L52.9,14.0 L52.0,234.0 Z" fill="rgba(249,115,22,0.32)" stroke="#f97316" stroke-width="1.5"/><line x1="52" y1="136.3" x2="87.2" y2="136.3" stroke="#fed7aa" stroke-width="2"/><polygon points="52,123.1 57,128.1 52,133.1 47,128.1" fill="#ea580c" stroke="#fff" stroke-width="1"/><text x="52" y="274" fill="#8b93a1" font-size="11" text-anchor="middle" >Jul 19</text></g><g transform="translate(358,0)"><line x1="52" y1="14" x2="52" y2="234" stroke="#232a35"/><path d="M52.0,14.0 L50.9,234.0 L50.4,231.7 L49.7,229.4 L48.8,227.1 L47.8,224.7 L46.6,222.4 L45.2,220.1 L43.7,217.8 L42.1,215.5 L40.4,213.2 L38.7,210.8 L36.9,208.5 L35.1,206.2 L33.3,203.9 L31.4,201.6 L29.6,199.3 L27.7,196.9 L26.0,194.6 L24.2,192.3 L22.6,190.0 L21.2,187.7 L19.9,185.4 L18.7,183.1 L17.7,180.7 L16.9,178.4 L16.2,176.1 L15.6,173.8 L15.2,171.5 L14.9,169.2 L14.7,166.8 L14.6,164.5 L14.6,162.2 L14.7,159.9 L14.9,157.6 L15.1,155.3 L15.3,152.9 L15.5,150.6 L15.8,148.3 L16.0,146.0 L16.2,143.7 L16.4,141.4 L16.5,139.1 L16.7,136.7 L16.9,134.4 L17.1,132.1 L17.3,129.8 L17.7,127.5 L18.2,125.2 L19.0,122.8 L20.0,120.5 L21.2,118.2 L22.7,115.9 L24.4,113.6 L26.2,111.3 L28.1,108.9 L30.0,106.6 L31.8,104.3 L33.5,102.0 L35.0,99.7 L36.2,97.4 L37.2,95.1 L38.0,92.7 L38.7,90.4 L39.2,88.1 L39.7,85.8 L40.2,83.5 L40.7,81.2 L41.3,78.8 L42.0,76.5 L42.8,74.2 L43.6,71.9 L44.4,69.6 L45.3,67.3 L46.2,64.9 L47.0,62.6 L47.7,60.3 L48.4,58.0 L49.0,55.7 L49.5,53.4 L50.0,51.1 L50.3,48.7 L50.7,46.4 L50.9,44.1 L51.1,41.8 L51.3,39.5 L51.5,37.2 L51.6,34.8 L51.7,32.5 L51.8,30.2 L51.9,27.9 L51.9,25.6 L51.9,23.3 L52.0,20.9 L52.0,18.6 L52.0,16.3 L52.0,14.0 L52.0,234.0 Z" fill="rgba(124,134,152,0.28)" stroke="#7c8698" stroke-width="1.5"/><line x1="52" y1="148.1" x2="16.8" y2="148.1" stroke="#cbd5e1" stroke-width="2"/><path d="M52.0,14.0 L52.0,234.0 L52.0,231.7 L52.0,229.4 L52.0,227.1 L52.1,224.7 L52.1,222.4 L52.2,220.1 L52.4,217.8 L52.6,215.5 L52.9,213.2 L53.3,210.8 L53.9,208.5 L54.7,206.2 L55.8,203.9 L57.1,201.6 L58.8,199.3 L60.7,196.9 L63.0,194.6 L65.6,192.3 L68.5,190.0 L71.4,187.7 L74.5,185.4 L77.5,183.1 L80.4,180.7 L83.1,178.4 L85.5,176.1 L87.6,173.8 L89.3,171.5 L90.8,169.2 L91.9,166.8 L92.9,164.5 L93.7,162.2 L94.4,159.9 L94.9,157.6 L95.4,155.3 L95.7,152.9 L95.9,150.6 L96.0,148.3 L95.9,146.0 L95.6,143.7 L95.2,141.4 L94.6,139.1 L93.9,136.7 L93.0,134.4 L92.1,132.1 L91.0,129.8 L89.9,127.5 L88.8,125.2 L87.6,122.8 L86.3,120.5 L85.0,118.2 L83.7,115.9 L82.3,113.6 L80.8,111.3 L79.4,108.9 L77.9,106.6 L76.5,104.3 L75.1,102.0 L73.8,99.7 L72.6,97.4 L71.4,95.1 L70.4,92.7 L69.4,90.4 L68.6,88.1 L67.8,85.8 L67.0,83.5 L66.3,81.2 L65.6,78.8 L64.8,76.5 L64.0,74.2 L63.2,71.9 L62.3,69.6 L61.3,67.3 L60.3,64.9 L59.3,62.6 L58.4,60.3 L57.5,58.0 L56.7,55.7 L55.9,53.4 L55.4,51.1 L54.9,48.7 L54.6,46.4 L54.3,44.1 L54.2,41.8 L54.2,39.5 L54.2,37.2 L54.2,34.8 L54.2,32.5 L54.2,30.2 L54.2,27.9 L54.1,25.6 L53.9,23.3 L53.8,20.9 L53.6,18.6 L53.4,16.3 L53.2,14.0 L52.0,234.0 Z" fill="rgba(249,115,22,0.32)" stroke="#f97316" stroke-width="1.5"/><line x1="52" y1="135.3" x2="87.2" y2="135.3" stroke="#fed7aa" stroke-width="2"/><polygon points="52,99.8 57,104.8 52,109.8 47,104.8" fill="#ea580c" stroke="#fff" stroke-width="1"/><text x="52" y="274" fill="#8b93a1" font-size="11" text-anchor="middle" >Jul 20</text></g><g transform="translate(462,0)"><line x1="52" y1="14" x2="52" y2="234" stroke="#232a35"/><path d="M52.0,14.0 L51.0,234.0 L50.5,231.7 L49.9,229.4 L49.1,227.1 L48.1,224.7 L47.1,222.4 L45.8,220.1 L44.5,217.8 L43.1,215.5 L41.6,213.2 L40.0,210.8 L38.5,208.5 L36.9,206.2 L35.3,203.9 L33.7,201.6 L32.1,199.3 L30.5,196.9 L28.9,194.6 L27.4,192.3 L25.9,190.0 L24.5,187.7 L23.2,185.4 L22.0,183.1 L20.9,180.7 L19.9,178.4 L19.1,176.1 L18.4,173.8 L17.8,171.5 L17.5,169.2 L17.3,166.8 L17.2,164.5 L17.3,162.2 L17.4,159.9 L17.6,157.6 L17.9,155.3 L18.1,152.9 L18.2,150.6 L18.3,148.3 L18.4,146.0 L18.4,143.7 L18.4,141.4 L18.4,139.1 L18.5,136.7 L18.6,134.4 L18.7,132.1 L19.0,129.8 L19.4,127.5 L20.0,125.2 L20.8,122.8 L21.7,120.5 L22.9,118.2 L24.3,115.9 L25.8,113.6 L27.4,111.3 L29.1,108.9 L30.6,106.6 L32.1,104.3 L33.4,102.0 L34.6,99.7 L35.6,97.4 L36.4,95.1 L37.0,92.7 L37.6,90.4 L38.1,88.1 L38.7,85.8 L39.3,83.5 L39.9,81.2 L40.6,78.8 L41.4,76.5 L42.3,74.2 L43.2,71.9 L44.2,69.6 L45.1,67.3 L46.0,64.9 L46.8,62.6 L47.6,60.3 L48.3,58.0 L48.9,55.7 L49.5,53.4 L50.0,51.1 L50.3,48.7 L50.7,46.4 L50.9,44.1 L51.2,41.8 L51.4,39.5 L51.5,37.2 L51.6,34.8 L51.7,32.5 L51.8,30.2 L51.9,27.9 L51.9,25.6 L51.9,23.3 L52.0,20.9 L52.0,18.6 L52.0,16.3 L52.0,14.0 L52.0,234.0 Z" fill="rgba(124,134,152,0.28)" stroke="#7c8698" stroke-width="1.5"/><line x1="52" y1="146.5" x2="16.8" y2="146.5" stroke="#cbd5e1" stroke-width="2"/><path d="M52.0,14.0 L52.0,234.0 L52.0,231.7 L52.0,229.4 L52.1,227.1 L52.1,224.7 L52.2,222.4 L52.2,220.1 L52.4,217.8 L52.6,215.5 L52.9,213.2 L53.3,210.8 L53.9,208.5 L54.7,206.2 L55.8,203.9 L57.0,201.6 L58.6,199.3 L60.5,196.9 L62.7,194.6 L65.1,192.3 L67.7,190.0 L70.5,187.7 L73.4,185.4 L76.2,183.1 L78.9,180.7 L81.4,178.4 L83.7,176.1 L85.7,173.8 L87.4,171.5 L88.9,169.2 L90.1,166.8 L91.3,164.5 L92.3,162.2 L93.2,159.9 L94.0,157.6 L94.8,155.3 L95.4,152.9 L95.8,150.6 L96.0,148.3 L95.9,146.0 L95.6,143.7 L95.0,141.4 L94.1,139.1 L93.0,136.7 L91.7,134.4 L90.3,132.1 L88.8,129.8 L87.3,127.5 L85.9,125.2 L84.5,122.8 L83.2,120.5 L82.0,118.2 L80.8,115.9 L79.6,113.6 L78.5,111.3 L77.4,108.9 L76.3,106.6 L75.2,104.3 L74.1,102.0 L73.0,99.7 L71.9,97.4 L70.9,95.1 L69.8,92.7 L68.8,90.4 L67.7,88.1 L66.7,85.8 L65.7,83.5 L64.7,81.2 L63.7,78.8 L62.7,76.5 L61.8,74.2 L60.8,71.9 L59.8,69.6 L58.9,67.3 L58.0,64.9 L57.1,62.6 L56.3,60.3 L55.6,58.0 L55.0,55.7 L54.5,53.4 L54.2,51.1 L53.9,48.7 L53.8,46.4 L53.7,44.1 L53.8,41.8 L53.8,39.5 L53.9,37.2 L54.0,34.8 L54.0,32.5 L54.1,30.2 L54.1,27.9 L54.0,25.6 L53.9,23.3 L53.7,20.9 L53.5,18.6 L53.3,16.3 L53.1,14.0 L52.0,234.0 Z" fill="rgba(249,115,22,0.32)" stroke="#f97316" stroke-width="1.5"/><line x1="52" y1="136.7" x2="87.2" y2="136.7" stroke="#fed7aa" stroke-width="2"/><polygon points="52,139.4 57,144.4 52,149.4 47,144.4" fill="#ea580c" stroke="#fff" stroke-width="1"/><text x="52" y="274" fill="#8b93a1" font-size="11" text-anchor="middle" >Jul 21</text></g><g transform="translate(566,0)"><line x1="52" y1="14" x2="52" y2="234" stroke="#232a35"/><path d="M52.0,14.0 L51.1,234.0 L50.7,231.7 L50.2,229.4 L49.5,227.1 L48.7,224.7 L47.9,222.4 L46.9,220.1 L45.9,217.8 L44.8,215.5 L43.7,213.2 L42.5,210.8 L41.3,208.5 L40.1,206.2 L38.7,203.9 L37.4,201.6 L35.9,199.3 L34.4,196.9 L32.9,194.6 L31.4,192.3 L29.9,190.0 L28.5,187.7 L27.2,185.4 L25.9,183.1 L24.8,180.7 L23.8,178.4 L22.8,176.1 L22.0,173.8 L21.3,171.5 L20.8,169.2 L20.4,166.8 L20.2,164.5 L20.2,162.2 L20.3,159.9 L20.5,157.6 L20.8,155.3 L21.0,152.9 L21.2,150.6 L21.4,148.3 L21.4,146.0 L21.5,143.7 L21.4,141.4 L21.4,139.1 L21.4,136.7 L21.5,134.4 L21.7,132.1 L21.9,129.8 L22.3,127.5 L22.8,125.2 L23.5,122.8 L24.4,120.5 L25.4,118.2 L26.5,115.9 L27.8,113.6 L29.0,111.3 L30.3,108.9 L31.5,106.6 L32.6,104.3 L33.6,102.0 L34.5,99.7 L35.3,97.4 L36.0,95.1 L36.7,92.7 L37.3,90.4 L37.9,88.1 L38.5,85.8 L39.2,83.5 L40.0,81.2 L40.8,78.8 L41.8,76.5 L42.7,74.2 L43.7,71.9 L44.7,69.6 L45.7,67.3 L46.6,64.9 L47.4,62.6 L48.1,60.3 L48.7,58.0 L49.2,55.7 L49.6,53.4 L50.0,51.1 L50.3,48.7 L50.6,46.4 L50.8,44.1 L51.0,41.8 L51.2,39.5 L51.4,37.2 L51.5,34.8 L51.7,32.5 L51.8,30.2 L51.8,27.9 L51.9,25.6 L51.9,23.3 L52.0,20.9 L52.0,18.6 L52.0,16.3 L52.0,14.0 L52.0,234.0 Z" fill="rgba(124,134,152,0.28)" stroke="#7c8698" stroke-width="1.5"/><line x1="52" y1="144.5" x2="16.8" y2="144.5" stroke="#cbd5e1" stroke-width="2"/><path d="M52.0,14.0 L52.0,234.0 L52.0,231.7 L52.0,229.4 L52.0,227.1 L52.1,224.7 L52.1,222.4 L52.2,220.1 L52.4,217.8 L52.6,215.5 L52.9,213.2 L53.4,210.8 L54.0,208.5 L54.8,206.2 L55.9,203.9 L57.2,201.6 L58.8,199.3 L60.6,196.9 L62.7,194.6 L65.0,192.3 L67.4,190.0 L69.9,187.7 L72.3,185.4 L74.7,183.1 L76.9,180.7 L78.8,178.4 L80.6,176.1 L82.1,173.8 L83.5,171.5 L84.8,169.2 L86.0,166.8 L87.3,164.5 L88.6,162.2 L90.0,159.9 L91.4,157.6 L92.8,155.3 L94.0,152.9 L95.1,150.6 L95.7,148.3 L96.0,146.0 L95.8,143.7 L95.1,141.4 L94.0,139.1 L92.5,136.7 L90.8,134.4 L88.8,132.1 L86.8,129.8 L84.8,127.5 L82.9,125.2 L81.0,122.8 L79.3,120.5 L77.6,118.2 L76.1,115.9 L74.7,113.6 L73.4,111.3 L72.2,108.9 L71.0,106.6 L69.9,104.3 L68.9,102.0 L67.9,99.7 L67.0,97.4 L66.2,95.1 L65.4,92.7 L64.7,90.4 L64.0,88.1 L63.4,85.8 L62.8,83.5 L62.2,81.2 L61.6,78.8 L61.0,76.5 L60.3,74.2 L59.5,71.9 L58.8,69.6 L58.0,67.3 L57.2,64.9 L56.4,62.6 L55.6,60.3 L55.0,58.0 L54.4,55.7 L54.0,53.4 L53.7,51.1 L53.5,48.7 L53.4,46.4 L53.4,44.1 L53.5,41.8 L53.6,39.5 L53.7,37.2 L53.9,34.8 L54.0,32.5 L54.0,30.2 L54.0,27.9 L53.9,25.6 L53.8,23.3 L53.6,20.9 L53.4,18.6 L53.2,16.3 L53.0,14.0 L52.0,234.0 Z" fill="rgba(249,115,22,0.32)" stroke="#f97316" stroke-width="1.5"/><line x1="52" y1="138.6" x2="87.2" y2="138.6" stroke="#fed7aa" stroke-width="2"/><polygon points="52,162.6 57,167.6 52,172.6 47,167.6" fill="#ea580c" stroke="#fff" stroke-width="1"/><text x="52" y="274" fill="#8b93a1" font-size="11" text-anchor="middle" >Jul 22</text></g><g transform="translate(670,0)"><line x1="52" y1="14" x2="52" y2="234" stroke="#232a35"/><path d="M52.0,14.0 L51.1,234.0 L50.8,231.7 L50.3,229.4 L49.8,227.1 L49.1,224.7 L48.4,222.4 L47.6,220.1 L46.8,217.8 L45.9,215.5 L45.1,213.2 L44.1,210.8 L43.2,208.5 L42.2,206.2 L41.1,203.9 L40.0,201.6 L38.7,199.3 L37.3,196.9 L35.8,194.6 L34.3,192.3 L32.6,190.0 L31.0,187.7 L29.3,185.4 L27.7,183.1 L26.2,180.7 L24.9,178.4 L23.7,176.1 L22.7,173.8 L22.0,171.5 L21.5,169.2 L21.2,166.8 L21.2,164.5 L21.3,162.2 L21.7,159.9 L22.1,157.6 L22.6,155.3 L23.0,152.9 L23.5,150.6 L23.9,148.3 L24.2,146.0 L24.4,143.7 L24.5,141.4 L24.6,139.1 L24.7,136.7 L24.8,134.4 L24.9,132.1 L25.0,129.8 L25.2,127.5 L25.5,125.2 L25.9,122.8 L26.4,120.5 L27.1,118.2 L27.9,115.9 L28.9,113.6 L29.9,111.3 L31.0,108.9 L32.2,106.6 L33.3,104.3 L34.3,102.0 L35.2,99.7 L36.0,97.4 L36.7,95.1 L37.3,92.7 L37.8,90.4 L38.3,88.1 L38.8,85.8 L39.4,83.5 L40.0,81.2 L40.7,78.8 L41.4,76.5 L42.3,74.2 L43.2,71.9 L44.1,69.6 L45.0,67.3 L45.8,64.9 L46.6,62.6 L47.3,60.3 L47.9,58.0 L48.5,55.7 L49.0,53.4 L49.4,51.1 L49.8,48.7 L50.2,46.4 L50.5,44.1 L50.8,41.8 L51.1,39.5 L51.3,37.2 L51.5,34.8 L51.6,32.5 L51.7,30.2 L51.8,27.9 L51.9,25.6 L51.9,23.3 L52.0,20.9 L52.0,18.6 L52.0,16.3 L52.0,14.0 L52.0,234.0 Z" fill="rgba(124,134,152,0.28)" stroke="#7c8698" stroke-width="1.5"/><line x1="52" y1="142.8" x2="16.8" y2="142.8" stroke="#cbd5e1" stroke-width="2"/><path d="M52.0,14.0 L52.0,234.0 L52.0,231.7 L52.0,229.4 L52.0,227.1 L52.1,224.7 L52.1,222.4 L52.2,220.1 L52.3,217.8 L52.5,215.5 L52.7,213.2 L53.1,210.8 L53.6,208.5 L54.3,206.2 L55.2,203.9 L56.3,201.6 L57.6,199.3 L59.2,196.9 L61.1,194.6 L63.2,192.3 L65.4,190.0 L67.7,187.7 L70.2,185.4 L72.6,183.1 L74.9,180.7 L77.2,178.4 L79.4,176.1 L81.5,173.8 L83.4,171.5 L85.3,169.2 L87.1,166.8 L88.8,164.5 L90.4,162.2 L92.0,159.9 L93.3,157.6 L94.5,155.3 L95.4,152.9 L95.9,150.6 L96.0,148.3 L95.6,146.0 L94.8,143.7 L93.5,141.4 L91.9,139.1 L89.9,136.7 L87.8,134.4 L85.5,132.1 L83.2,129.8 L80.9,127.5 L78.8,125.2 L76.8,122.8 L74.9,120.5 L73.3,118.2 L71.8,115.9 L70.5,113.6 L69.4,111.3 L68.4,108.9 L67.6,106.6 L66.8,104.3 L66.1,102.0 L65.5,99.7 L64.9,97.4 L64.4,95.1 L63.9,92.7 L63.4,90.4 L62.9,88.1 L62.5,85.8 L62.0,83.5 L61.5,81.2 L61.0,78.8 L60.4,76.5 L59.8,74.2 L59.1,71.9 L58.4,69.6 L57.6,67.3 L56.8,64.9 L56.1,62.6 L55.4,60.3 L54.7,58.0 L54.2,55.7 L53.8,53.4 L53.5,51.1 L53.3,48.7 L53.2,46.4 L53.3,44.1 L53.4,41.8 L53.5,39.5 L53.6,37.2 L53.8,34.8 L53.9,32.5 L53.9,30.2 L53.9,27.9 L53.8,25.6 L53.7,23.3 L53.5,20.9 L53.3,18.6 L53.1,16.3 L52.9,14.0 L52.0,234.0 Z" fill="rgba(249,115,22,0.32)" stroke="#f97316" stroke-width="1.5"/><line x1="52" y1="139.5" x2="87.2" y2="139.5" stroke="#fed7aa" stroke-width="2"/><polygon points="52,167.3 57,172.3 52,177.3 47,172.3" fill="#ea580c" stroke="#fff" stroke-width="1"/><text x="52" y="274" fill="#e7e9ee" font-size="11" text-anchor="middle" font-weight="600">Today</text></g></svg>