<svg xmlns="http://www.w3.org/2000/svg" width="794" height="290" viewBox="0 0 794 290" font-family="system-ui,sans-serif"><rect width="794" height="290" fill="#0f1115"/><text x="38" y="10" fill="#8b93a1" font-size="10" text-anchor="end">°C</text><line x1="42" y1="234.0" x2="784" y2="234.0" stroke="#1c222c"/><text x="38" y="238.0" fill="#6b7280" font-size="11" text-anchor="end">12°</text><line x1="42" y1="197.3" x2="784" y2="197.3" stroke="#1c222c"/><text x="38" y="201.3" fill="#6b7280" font-size="11" text-anchor="end">15°</text><line x1="42" y1="160.7" x2="784" y2="160.7" stroke="#1c222c"/><text x="38" y="164.7" fill="#6b7280" font-size="11" text-anchor="end">19°</text><line x1="42" y1="124.0" x2="784" y2="124.0" stroke="#1c222c"/><text x="38" y="128.0" fill="#6b7280" font-size="11" text-anchor="end">22°</text><line x1="42" y1="87.3" x2="784" y2="87.3" stroke="#1c222c"/><text x="38" y="91.3" fill="#6b7280" font-size="11" text-anchor="end">25°</text><line x1="42" y1="50.7" x2="784" y2="50.7" stroke="#1c222c"/><text x="38" y="54.7" fill="#6b7280" font-size="11" text-anchor="end">28°</text><line x1="42" y1="14.0" x2="784" y2="14.0" stroke="#1c222c"/><text x="38" y="18.0" fill="#6b7280" font-size="11" text-anchor="end">31°</text><g transform="translate(46,0)"><line x1="52" y1="14" x2="52" y2="234" stroke="#232a35"/><path d="M52.0,14.0 L51.0,234.0 L50.6,231.7 L49.9,229.4 L49.1,227.1 L48.2,224.7 L47.0,222.4 L45.6,220.1 L44.0,217.8 L42.3,215.5 L40.5,213.2 L38.7,210.8 L36.9,208.5 L35.1,206.2 L33.3,203.9 L31.7,201.6 L30.1,199.3 L28.7,196.9 L27.3,194.6 L26.0,192.3 L24.7,190.0 L23.5,187.7 L22.4,185.4 L21.4,183.1 L20.4,180.7 L19.6,178.4 L19.0,176.1 L18.5,173.8 L18.3,171.5 L18.3,169.2 L18.5,166.8 L18.9,164.5 L19.4,162.2 L20.0,159.9 L20.7,157.6 L21.3,155.3 L21.9,152.9 L22.5,150.6 L22.9,148.3 L23.3,146.0 L23.6,143.7 L23.8,141.4 L24.0,139.1 L24.2,136.7 L24.4,134.4 L24.8,132.1 L25.3,129.8 L25.9,127.5 L26.8,125.2 L27.7,122.8 L28.9,120.5 L30.1,118.2 L31.5,115.9 L32.9,113.6 L34.3,111.3 L35.6,108.9 L36.9,106.6 L38.0,104.3 L39.0,102.0 L39.9,99.7 L40.6,97.4 L41.2,95.1 L41.7,92.7 L42.2,90.4 L42.6,88.1 L43.1,85.8 L43.5,83.5 L44.0,81.2 L44.5,78.8 L45.0,76.5 L45.5,74.2 L46.1,71.9 L46.7,69.6 L47.2,67.3 L47.8,64.9 L48.3,62.6 L48.8,60.3 L49.3,58.0 L49.7,55.7 L50.0,53.4 L50.3,51.1 L50.6,48.7 L50.7,46.4 L50.9,44.1 L51.0,41.8 L51.1,39.5 L51.2,37.2 L51.2,34.8 L51.3,32.5 L51.3,30.2 L51.4,27.9 L51.5,25.6 L51.5,23.3 L51.6,20.9 L51.7,18.6 L51.8,16.3 L51.8,14.0 L52.0,234.0 Z" fill="rgba(124,134,152,0.28)" stroke="#7c8698" stroke-width="1.5"/><line x1="52" y1="151.6" x2="16.8" y2="151.6" stroke="#cbd5e1" stroke-width="2"/><circle cx="58.0" cy="137.5" r="2" fill="#f97316" opacity="0.55"/><circle cx="63.0" cy="109.3" r="2" fill="#f97316" opacity="0.55"/><circle cx="68.0" cy="118.7" r="2" fill="#f97316" opacity="0.55"/><circle cx="58.0" cy="131.7" r="2" fill="#f97316" opacity="0.55"/><circle cx="63.0" cy="108.1" r="2" fill="#f97316" opacity="0.55"/><circle cx="68.0" cy="110.5" r="2" fill="#f97316" opacity="0.55"/><circle cx="58.0" cy="129.3" r="2" fill="#f97316" opacity="0.55"/><circle cx="63.0" cy="174.1" r="2" fill="#f97316" opacity="0.55"/><circle cx="68.0" cy="177.6" r="2" fill="#f97316" opacity="0.55"/><circle cx="58.0" cy="164.6" r="2" fill="#f97316" opacity="0.55"/><circle cx="63.0" cy="152.9" r="2" fill="#f97316" opacity="0.55"/><circle cx="68.0" cy="145.8" r="2" fill="#f97316" opacity="0.55"/><line x1="52" y1="138.3" x2="87.2" y2="138.3" stroke="#fed7aa" stroke-width="2"/><polygon points="52,177.3 57,182.3 52,187.3 47,182.3" fill="#ea580c" stroke="#fff" stroke-width="1"/><text x="52" y="274" fill="#8b93a1" font-size="11" text-anchor="middle" >Jul 17</text></g><g transform="translate(150,0)"><line x1="52" y1="14" x2="52" y2="234" stroke="#232a35"/><path d="M52.0,14.0 L51.1,234.0 L50.7,231.7 L50.2,229.4 L49.4,227.1 L48.5,224.7 L47.5,222.4 L46.2,220.1 L44.8,217.8 L43.4,215.5 L41.8,213.2 L40.2,210.8 L38.7,208.5 L37.2,206.2 L35.7,203.9 L34.3,201.6 L33.0,199.3 L31.7,196.9 L30.4,194.6 L29.1,192.3 L27.9,190.0 L26.7,187.7 L25.5,185.4 L24.4,183.1 L23.4,180.7 L22.6,178.4 L22.0,176.1 L21.5,173.8 L21.2,171.5 L21.1,169.2 L21.2,166.8 L21.4,164.5 L21.7,162.2 L22.1,159.9 L22.5,157.6 L22.9,155.3 L23.3,152.9 L23.7,150.6 L24.0,148.3 L24.2,146.0 L24.4,143.7 L24.5,141.4 L24.6,139.1 L24.7,136.7 L24.8,134.4 L25.0,132.1 L25.3,129.8 L25.7,127.5 L26.3,125.2 L27.0,122.8 L28.0,120.5 L29.1,118.2 L30.4,115.9 L31.8,113.6 L33.3,111.3 L34.8,108.9 L36.3,106.6 L37.7,104.3 L38.9,102.0 L40.0,99.7 L40.8,97.4 L41.6,95.1 L42.1,92.7 L42.6,90.4 L43.0,88.1 L43.4,85.8 L43.7,83.5 L44.1,81.2 L44.5,78.8 L44.9,76.5 L45.4,74.2 L46.0,71.9 L46.6,69.6 L47.1,67.3 L47.7,64.9 L48.3,62.6 L48.8,60.3 L49.3,58.0 L49.8,55.7 L50.1,53.4 L50.4,51.1 L50.7,48.7 L50.9,46.4 L51.1,44.1 L51.3,41.8 L51.4,39.5 L51.5,37.2 L51.6,34.8 L51.7,32.5 L51.8,30.2 L51.9,27.9 L51.9,25.6 L51.9,23.3 L52.0,20.9 L52.0,18.6 L52.0,16.3 L52.0,14.0 L52.0,234.0 Z" fill="rgba(124,134,152,0.28)" stroke="#7c8698" stroke-width="1.5"/><line x1="52" y1="150.2" x2="16.8" y2="150.2" stroke="#cbd5e1" stroke-width="2"/><circle cx="58.0" cy="109.3" r="2" fill="#f97316" opacity="0.55"/><circle cx="63.0" cy="118.7" r="2" fill="#f97316" opacity="0.55"/><circle cx="68.0" cy="131.7" r="2" fill="#f97316" opacity="0.55"/><circle cx="58.0" cy="108.1" r="2" fill="#f97316" opacity="0.55"/><circle cx="63.0" cy="110.5" r="2" fill="#f97316" opacity="0.55"/><circle cx="68.0" cy="129.3" r="2" fill="#f97316" opacity="0.55"/><circle cx="58.0" cy="174.1" r="2" fill="#f97316" opacity="0.55"/><circle cx="63.0" cy="177.6" r="2" fill="#f97316" opacity="0.55"/><circle cx="68.0" cy="164.6" r="2" fill="#f97316" opacity="0.55"/><circle cx="58.0" cy="152.9" r="2" fill="#f97316" opacity="0.55"/><circle cx="63.0" cy="154.0" r="2" fill="#f97316" opacity="0.55"/><circle cx="68.0" cy="119.9" r="2" fill="#f97316" opacity="0.55"/><line x1="52" y1="137.5" x2="87.2" y2="137.5" stroke="#fed7aa" stroke-width="2"/><polygon points="52,145.5 57,150.5 52,155.5 47,150.5" fill="#ea580c" stroke="#fff" stroke-width="1"/><text x="52" y="274" fill="#8b93a1" font-size="11" text-anchor="middle" >Jul 18</text></g><g transform="translate(254,0)"><line x1="52" y1="14" x2="52" y2="234" stroke="#232a35"/><path d="M52.0,14.0 L51.1,234.0 L50.7,231.7 L50.2,229.4 L49.5,227.1 L48.6,224.7 L47.6,222.4 L46.4,220.1 L45.1,217.8 L43.6,215.5 L42.1,213.2 L40.5,210.8 L38.9,208.5 L37.3,206.2 L35.7,203.9 L34.1,201.6 L32.6,199.3 L31.1,196.9 L29.6,194.6 L28.2,192.3 L27.0,190.0 L25.8,187.7 L24.7,185.4 L23.7,183.1 L22.9,180.7 L22.2,178.4 L21.5,176.1 L21.0,173.8 L20.5,171.5 L20.1,169.2 L19.8,166.8 L19.5,164.5 L19.3,162.2 L19.2,159.9 L19.2,157.6 L19.3,155.3 L19.5,152.9 L19.7,150.6 L20.0,148.3 L20.2,146.0 L20.5,143.7 L20.8,141.4 L21.1,139.1 L21.4,136.7 L21.7,134.4 L22.1,132.1 L22.5,129.8 L23.1,127.5 L23.7,125.2 L24.5,122.8 L25.5,120.5 L26.7,118.2 L28.0,115.9 L29.5,113.6 L31.0,111.3 L32.7,108.9 L34.3,106.6 L35.8,104.3 L37.2,102.0 L38.5,99.7 L39.6,97.4 L40.4,95.1 L41.2,92.7 L41.7,90.4 L42.2,88.1 L42.6,85.8 L42.9,83.5 L43.2,81.2 L43.6,78.8 L44.0,76.5 L44.5,74.2 L45.0,71.9 L45.7,69.6 L46.4,67.3 L47.1,64.9 L47.8,62.6 L48.4,60.3 L49.0,58.0 L49.5,55.7 L49.9,53.4 L50.3,51.1 L50.6,48.7 L50.8,46.4 L51.0,44.1 L51.2,41.8 L51.4,39.5 L51.5,37.2 L51.6,34.8 L51.7,32.5 L51.8,30.2 L51.8,27.9 L51.9,25.6 L51.9,23.3 L52.0,20.9 L52.0,18.6 L52.0,16.3 L52.0,14.0 L52.0,234.0 Z" fill="rgba(124,134,152,0.28)" stroke="#7c8698" stroke-width="1.5"/><line x1="52" y1="148.8" x2="16.8" y2="148.8" stroke="#cbd5e1" stroke-width="2"/><circle cx="58.0" cy="118.7" r="2" fill="#f97316" opacity="0.55"/><circle cx="63.0" cy="131.7" r="2" fill="#f97316" opacity="0.55"/><circle cx="68.0" cy="108.1" r="2" fill="#f97316" opacity="0.55"/><circle cx="58.0" cy="110.5" r="2" fill="#f97316" opacity="0.55"/><circle cx="63.0" cy="129.3" r="2" fill="#f97316" opacity="0.55"/><circle cx="68.0" cy="174.1" r="2" fill="#f97316" opacity="0.55"/><circle cx="58.0" cy="177.6" r="2" fill="#f97316" opacity="0.55"/><circle cx="63.0" cy="164.6" r="2" fill="#f97316" opacity="0.55"/><circle cx="68.0" cy="152.9" r="2" fill="#f97316" opacity="0.55"/><circle cx="58.0" cy="154.0" r="2" fill="#f97316" opacity="0.55"/><circle cx="63.0" cy="116.3" r="2" fill="#f97316" opacity="0.55"/><circle cx="68.0" cy="143.4" r="2" fill="#f97316" opacity="0.55"/><line x1="52" y1="140.1" x2="87.2" y2="140.1" stroke="#fed7aa" stroke-width="2"/><polygon points="52,121.9 57,126.9 52,131.9 47,126.9" fill="#ea580c" stroke="#fff" stroke-width="1"/><text x="52" y="274" fill="#8b93a1" font-size="11" text-anchor="middle" >Jul 19</text></g><g transform="translate(358,0)"><line x1="52" y1="14" x2="52" y2="234" stroke="#232a35"/><path d="M52.0,14.0 L50.8,234.0 L50.2,231.7 L49.5,229.4 L48.6,227.1 L47.5,224.7 L46.2,222.4 L44.8,220.1 L43.2,217.8 L41.6,215.5 L39.8,213.2 L38.0,210.8 L36.1,208.5 L34.3,206.2 L32.3,203.9 L30.4,201.6 L28.5,199.3 L26.5,196.9 L24.7,194.6 L22.8,192.3 L21.1,190.0 L19.6,187.7 L18.2,185.4 L16.9,183.1 L15.9,180.7 L15.0,178.4 L14.2,176.1 L13.6,173.8 L13.1,171.5 L12.8,169.2 L12.5,166.8 L12.4,164.5 L12.4,162.2 L12.5,159.9 L12.6,157.6 L12.8,155.3 L13.0,152.9 L13.3,150.6 L13.5,148.3 L13.8,146.0 L14.0,143.7 L14.2,141.4 L14.4,139.1 L14.5,136.7 L14.7,134.4 L14.9,132.1 L15.1,129.8 L15.5,127.5 L15.9,125.2 L16.6,122.8 L17.5,120.5 L18.7,118.2 L20.1,115.9 L21.7,113.6 L23.6,111.3 L25.5,108.9 L27.5,106.6 L29.5,104.3 L31.3,102.0 L33.0,99.7 L34.5,97.4 L35.7,95.1 L36.6,92.7 L37.4,90.4 L38.1,88.1 L38.6,85.8 L39.1,83.5 L39.6,81.2 L40.2,78.8 L40.9,76.5 L41.6,74.2 L42.4,71.9 L43.3,69.6 L44.2,67.3 L45.1,64.9 L46.0,62.6 L46.8,60.3 L47.6,58.0 L48.3,55.7 L48.9,53.4 L49.4,51.1 L49.9,48.7 L50.3,46.4 L50.6,44.1 L50.9,41.8 L51.1,39.5 L51.3,37.2 L51.5,34.8 L51.6,32.5 L51.7,30.2 L51.8,27.9 L51.9,25.6 L51.9,23.3 L51.9,20.9 L52.0,18.6 L52.0,16.3 L52.0,14.0 L52.0,234.0 Z" fill="rgba(124,134,152,0.28)" stroke="#7c8698" stroke-width="1.5"/><line x1="52" y1="147.2" x2="16.8" y2="147.2" stroke="#cbd5e1" stroke-width="2"/><circle cx="58.0" cy="131.7" r="2" fill="#f97316" opacity="0.55"/><circle cx="63.0" cy="108.1" r="2" fill="#f97316" opacity="0.55"/><circle cx="68.0" cy="110.5" r="2" fill="#f97316" opacity="0.55"/><circle cx="58.0" cy="129.3" r="2" fill="#f97316" opacity="0.55"/><circle cx="63.0" cy="174.1" r="2" fill="#f97316" opacity="0.55"/><circle cx="68.0" cy="177.6" r="2" fill="#f97316" opacity="0.55"/><circle cx="58.0" cy="164.6" r="2" fill="#f97316" opacity="0.55"/><circle cx="63.0" cy="152.9" r="2" fill="#f97316" opacity="0.55"/><circle cx="68.0" cy="154.0" r="2" fill="#f97316" opacity="0.55"/><circle cx="58.0" cy="116.3" r="2" fill="#f97316" opacity="0.55"/><circle cx="63.0" cy="96.3" r="2" fill="#f97316" opacity="0.55"/><circle cx="68.0" cy="181.1" r="2" fill="#f97316" opacity="0.55"/><line x1="52" y1="141.4" x2="87.2" y2="141.4" stroke="#fed7aa" stroke-width="2"/><polygon points="52,98.4 57,103.4 52,108.4 47,103.4" fill="#ea580c" stroke="#fff" stroke-width="1"/><text x="52" y="274" fill="#8b93a1" font-size="11" text-anchor="middle" >Jul 20</text></g><g transform="translate(462,0)"><line x1="52" y1="14" x2="52" y2="234" stroke="#232a35"/><path d="M52.0,14.0 L50.8,234.0 L50.2,231.7 L49.5,229.4 L48.7,227.1 L47.6,224.7 L46.4,222.4 L45.1,220.1 L43.6,217.8 L42.0,215.5 L40.3,213.2 L38.6,210.8 L36.9,208.5 L35.1,206.2 L33.3,203.9 L31.5,201.6 L29.8,199.3 L28.0,196.9 L26.2,194.6 L24.5,192.3 L22.9,190.0 L21.3,187.7 L19.8,185.4 L18.4,183.1 L17.2,180.7 L16.1,178.4 L15.1,176.1 L14.3,173.8 L13.7,171.5 L13.2,169.2 L12.9,166.8 L12.8,164.5 L12.9,162.2 L13.0,159.9 L13.2,157.6 L13.5,155.3 L13.7,152.9 L13.9,150.6 L14.1,148.3 L14.1,146.0 L14.2,143.7 L14.2,141.4 L14.2,139.1 L14.2,136.7 L14.3,134.4 L14.4,132.1 L14.7,129.8 L15.0,127.5 L15.6,125.2 L16.3,122.8 L17.3,120.5 L18.5,118.2 L20.0,115.9 L21.6,113.6 L23.3,111.3 L25.1,108.9 L26.9,106.6 L28.6,104.3 L30.2,102.0 L31.6,99.7 L32.8,97.4 L33.8,95.1 L34.6,92.7 L35.4,90.4 L36.0,88.1 L36.6,85.8 L37.2,83.5 L37.8,81.2 L38.6,78.8 L39.4,76.5 L40.3,74.2 L41.3,71.9 L42.3,69.6 L43.4,67.3 L44.4,64.9 L45.4,62.6 L46.3,60.3 L47.2,58.0 L48.0,55.7 L48.6,53.4 L49.2,51.1 L49.7,48.7 L50.2,46.4 L50.5,44.1 L50.8,41.8 L51.1,39.5 L51.3,37.2 L51.5,34.8 L51.6,32.5 L51.7,30.2 L51.8,27.9 L51.9,25.6 L51.9,23.3 L51.9,20.9 L52.0,18.6 L52.0,16.3 L52.0,14.0 L52.0,234.0 Z" fill="rgba(124,134,152,0.28)" stroke="#7c8698" stroke-width="1.5"/><line x1="52" y1="145.6" x2="16.8" y2="145.6" stroke="#cbd5e1" stroke-width="2"/><circle cx="58.0" cy="108.1" r="2" fill="#f97316" opacity="0.55"/><circle cx="63.0" cy="110.5" r="2" fill="#f97316" opacity="0.55"/><circle cx="68.0" cy="129.3" r="2" fill="#f97316" opacity="0.55"/><circle cx="58.0" cy="174.1" r="2" fill="#f97316" opacity="0.55"/><circle cx="63.0" cy="177.6" r="2" fill="#f97316" opacity="0.55"/><circle cx="68.0" cy="164.6" r="2" fill="#f97316" opacity="0.55"/><circle cx="58.0" cy="152.9" r="2" fill="#f97316" opacity="0.55"/><circle cx="63.0" cy="154.0" r="2" fill="#f97316" opacity="0.55"/><circle cx="68.0" cy="116.3" r="2" fill="#f97316" opacity="0.55"/><circle cx="58.0" cy="96.3" r="2" fill="#f97316" opacity="0.55"/><circle cx="63.0" cy="99.9" r="2" fill="#f97316" opacity="0.55"/><circle cx="68.0" cy="174.1" r="2" fill="#f97316" opacity="0.55"/><line x1="52" y1="138.1" x2="87.2" y2="138.1" stroke="#fed7aa" stroke-width="2"/><polygon points="52,138.4 57,143.4 52,148.4 47,143.4" fill="#ea580c" stroke="#fff" stroke-width="1"/><text x="52" y="274" fill="#8b93a1" font-size="11" text-anchor="middle" >Jul 21</text></g><g transform="translate(566,0)"><line x1="52" y1="14" x2="52" y2="234" stroke="#232a35"/><path d="M52.0,14.0 L50.8,234.0 L50.3,231.7 L49.6,229.4 L48.8,227.1 L47.9,224.7 L46.8,222.4 L45.6,220.1 L44.3,217.8 L43.0,215.5 L41.6,213.2 L40.1,210.8 L38.7,208.5 L37.1,206.2 L35.5,203.9 L33.8,201.6 L32.0,199.3 L30.2,196.9 L28.3,194.6 L26.4,192.3 L24.6,190.0 L22.8,187.7 L21.1,185.4 L19.5,183.1 L18.1,180.7 L16.8,178.4 L15.6,176.1 L14.5,173.8 L13.6,171.5 L12.9,169.2 L12.4,166.8 L12.1,164.5 L12.0,162.2 L12.1,159.9 L12.3,157.6 L12.6,155.3 L13.0,152.9 L13.2,150.6 L13.4,148.3 L13.6,146.0 L13.6,143.7 L13.6,141.4 L13.6,139.1 L13.6,136.7 L13.6,134.4 L13.7,132.1 L14.0,129.8 L14.4,127.5 L15.0,125.2 L15.7,122.8 L16.7,120.5 L17.8,118.2 L19.2,115.9 L20.7,113.6 L22.2,111.3 L23.8,108.9 L25.4,106.6 L26.8,104.3 L28.2,102.0 L29.4,99.7 L30.4,97.4 L31.4,95.1 L32.2,92.7 L33.0,90.4 L33.7,88.1 L34.5,85.8 L35.3,83.5 L36.2,81.2 L37.2,78.8 L38.3,76.5 L39.4,74.2 L40.6,71.9 L41.9,69.6 L43.1,67.3 L44.3,64.9 L45.3,62.6 L46.3,60.3 L47.2,58.0 L47.9,55.7 L48.5,53.4 L49.1,51.1 L49.5,48.7 L49.9,46.4 L50.2,44.1 L50.5,41.8 L50.8,39.5 L51.0,37.2 L51.2,34.8 L51.4,32.5 L51.6,30.2 L51.7,27.9 L51.8,25.6 L51.9,23.3 L51.9,20.9 L51.9,18.6 L52.0,16.3 L52.0,14.0 L52.0,234.0 Z" fill="rgba(124,134,152,0.28)" stroke="#7c8698" stroke-width="1.5"/><line x1="52" y1="143.6" x2="16.8" y2="143.6" stroke="#cbd5e1" stroke-width="2"/><circle cx="58.0" cy="110.5" r="2" fill="#f97316" opacity="0.55"/><circle cx="63.0" cy="129.3" r="2" fill="#f97316" opacity="0.55"/><circle cx="68.0" cy="174.1" r="2" fill="#f97316" opacity="0.55"/><circle cx="58.0" cy="177.6" r="2" fill="#f97316" opacity="0.55"/><circle cx="63.0" cy="164.6" r="2" fill="#f97316" opacity="0.55"/><circle cx="68.0" cy="152.9" r="2" fill="#f97316" opacity="0.55"/><circle cx="58.0" cy="154.0" r="2" fill="#f97316" opacity="0.55"/><circle cx="63.0" cy="116.3" r="2" fill="#f97316" opacity="0.55"/><circle cx="68.0" cy="96.3" r="2" fill="#f97316" opacity="0.55"/><circle cx="58.0" cy="99.9" r="2" fill="#f97316" opacity="0.55"/><circle cx="63.0" cy="111.6" r="2" fill="#f97316" opacity="0.55"/><circle cx="68.0" cy="176.4" r="2" fill="#f97316" opacity="0.55"/><line x1="52" y1="138.6" x2="87.2" y2="138.6" stroke="#fed7aa" stroke-width="2"/><polygon points="52,162.0 57,167.0 52,172.0 47,167.0" fill="#ea580c" stroke="#fff" stroke-width="1"/><text x="52" y="274" fill="#8b93a1" font-size="11" text-anchor="middle" >Jul 22</text></g><g transform="translate(670,0)"><line x1="52" y1="14" x2="52" y2="234" stroke="#232a35"/><path d="M52.0,14.0 L51.0,234.0 L50.5,231.7 L50.0,229.4 L49.3,227.1 L48.6,224.7 L47.7,222.4 L46.8,220.1 L45.9,217.8 L44.9,215.5 L43.9,213.2 L42.8,210.8 L41.7,208.5 L40.5,206.2 L39.3,203.9 L38.0,201.6 L36.5,199.3 L34.9,196.9 L33.2,194.6 L31.4,192.3 L29.5,190.0 L27.6,187.7 L25.6,185.4 L23.8,183.1 L22.0,180.7 L20.4,178.4 L19.0,176.1 L17.8,173.8 L16.8,171.5 L16.2,169.2 L15.8,166.8 L15.7,164.5 L15.8,162.2 L16.1,159.9 L16.6,157.6 L17.1,155.3 L17.7,152.9 L18.2,150.6 L18.7,148.3 L19.1,146.0 L19.4,143.7 L19.6,141.4 L19.7,139.1 L19.8,136.7 L19.9,134.4 L20.0,132.1 L20.1,129.8 L20.3,127.5 L20.5,125.2 L20.9,122.8 L21.5,120.5 L22.2,118.2 L23.1,115.9 L24.1,113.6 L25.3,111.3 L26.5,108.9 L27.8,106.6 L29.1,104.3 L30.4,102.0 L31.5,99.7 L32.6,97.4 L33.5,95.1 L34.2,92.7 L34.9,90.4 L35.5,88.1 L36.1,85.8 L36.7,83.5 L37.3,81.2 L38.0,78.8 L38.8,76.5 L39.8,74.2 L40.8,71.9 L41.8,69.6 L42.9,67.3 L43.9,64.9 L44.9,62.6 L45.8,60.3 L46.6,58.0 L47.3,55.7 L47.9,53.4 L48.5,51.1 L49.0,48.7 L49.5,46.4 L49.9,44.1 L50.3,41.8 L50.6,39.5 L50.9,37.2 L51.2,34.8 L51.4,32.5 L51.6,30.2 L51.7,27.9 L51.8,25.6 L51.9,23.3 L51.9,20.9 L51.9,18.6 L52.0,16.3 L52.0,14.0 L52.0,234.0 Z" fill="rgba(124,134,152,0.28)" stroke="#7c8698" stroke-width="1.5"/><line x1="52" y1="141.9" x2="16.8" y2="141.9" stroke="#cbd5e1" stroke-width="2"/><circle cx="58.0" cy="129.3" r="2" fill="#f97316" opacity="0.55"/><circle cx="63.0" cy="174.1" r="2" fill="#f97316" opacity="0.55"/><circle cx="68.0" cy="177.6" r="2" fill="#f97316" opacity="0.55"/><circle cx="58.0" cy="164.6" r="2" fill="#f97316" opacity="0.55"/><circle cx="63.0" cy="152.9" r="2" fill="#f97316" opacity="0.55"/><circle cx="68.0" cy="154.0" r="2" fill="#f97316" opacity="0.55"/><circle cx="58.0" cy="116.3" r="2" fill="#f97316" opacity="0.55"/><circle cx="63.0" cy="96.3" r="2" fill="#f97316" opacity="0.55"/><circle cx="68.0" cy="99.9" r="2" fill="#f97316" opacity="0.55"/><circle cx="58.0" cy="111.6" r="2" fill="#f97316" opacity="0.55"/><circle cx="63.0" cy="132.8" r="2" fill="#f97316" opacity="0.55"/><circle cx="68.0" cy="122.2" r="2" fill="#f97316" opacity="0.55"/><line x1="52" y1="136.0" x2="87.2" y2="136.0" stroke="#fed7aa" stroke-width="2"/><polygon points="52,166.7 57,171.7 52,176.7 47,171.7" fill="#ea580c" stroke="#fff" stroke-width="1"/><text x="52" y="274" fill="#e7e9ee" font-size="11" text-anchor="middle" font-weight="600">Today</text></g></svg>